<svg xmlns="http://www.w3.org/2000/svg" width="83.741" height="83.741" viewBox="0 0 83.741 83.741"><defs><style>.a{fill:rgba(255,133,53,0.3);}.b{fill:#333;stroke:#fff;stroke-width:0.5px;}</style></defs><g transform="translate(0.25 0.25)"><g transform="translate(21.482 14.769)"><path class="a" d="M128,88h13.426v32.222H128Zm0,0" transform="translate(-128 -88)"/><path class="a" d="M224,376h10.741v12.083H224Zm0,0" transform="translate(-207.889 -327.667)"/><path class="a" d="M304,376h10.741v12.083H304Zm0,0" transform="translate(-274.463 -327.667)"/><path class="a" d="M384,376h10.741v12.083H384Zm0,0" transform="translate(-341.037 -327.667)"/><path class="a" d="M301.426,104.247V88H288v21.482h8.191A6.719,6.719,0,0,1,301.426,104.247Zm0,0" transform="translate(-261.148 -88)"/></g><path d="M64,304h2.685v2.685H64Zm0,0" transform="translate(-53.259 -252.981)"/><path d="M112,304h2.685v2.685H112Zm0,0" transform="translate(-93.204 -252.981)"/><path d="M160,304h2.685v2.685H160Zm0,0" transform="translate(-133.148 -252.981)"/><path class="b" d="M80.556,52.361H69.815v-5.37H77.87A5.371,5.371,0,0,0,79.126,36.4a8.072,8.072,0,0,0-7.968-6.86,7.841,7.841,0,0,0-1.343.129V8.056h-5.37V0H18.8V2.814a7.962,7.962,0,0,0-2.685.973,7.92,7.92,0,0,0-4.028-1.1,8.072,8.072,0,0,0-7.968,6.86A5.371,5.371,0,0,0,5.37,20.139h8.056V45.648H2.685V75.185H0v8.056H83.241V75.185H80.556ZM76.528,37.593v1.343H77.87a2.685,2.685,0,0,1,0,5.37H56.389a2.685,2.685,0,0,1,0-5.37h1.343V37.593a5.376,5.376,0,0,1,5.37-5.37,5.32,5.32,0,0,1,3.218,1.1l.81.611.81-.611a5.32,5.32,0,0,1,3.218-1.1A5.376,5.376,0,0,1,76.528,37.593Zm-9.4-6.954a7.92,7.92,0,0,0-4.028-1.1,8.064,8.064,0,0,0-7.587,5.37H45.648v2.685h7.2a5.363,5.363,0,0,0,3.541,9.4H67.13v5.37H42.963V10.741H67.13ZM61.759,8.056h-18.8V2.685h18.8ZM40.278,2.685v5.37h-18.8V2.685ZM5.37,17.454a2.685,2.685,0,0,1,0-5.37H6.713V10.741a5.376,5.376,0,0,1,5.37-5.37,5.32,5.32,0,0,1,3.218,1.1l.81.611.81-.611A5.426,5.426,0,0,1,18.8,5.565v2.49h-5.37v9.4Zm10.741-6.713H40.278v41.62H37.593V45.648H16.111ZM5.37,48.333H34.907V60.417H72.5V57.732H37.593V55.046H77.87v2.685H75.185v2.685H77.87V75.185H29.537v-18.8H26.852v18.8h-5.37v-18.8H18.8v18.8h-5.37v-18.8H10.741v18.8H5.37ZM80.556,80.556H2.685V77.87h77.87Zm0,0"/><path d="M112,80h18.8v1.734H112Zm0,0" transform="translate(-93.204 -66.574)"/><path d="M112,144h18.8v1.734H112Zm0,0" transform="translate(-93.204 -119.833)"/><path d="M112,208h18.8v1.734H112Zm0,0" transform="translate(-93.204 -173.093)"/><path d="M128,112h2.685v2.685H128Zm0,0" transform="translate(-106.518 -93.204)"/><path d="M160,112h2.685v2.685H160Zm0,0" transform="translate(-133.148 -93.204)"/><path d="M192,112h2.685v2.685H192Zm0,0" transform="translate(-159.778 -93.204)"/><path d="M128,176h2.685v2.685H128Zm0,0" transform="translate(-106.518 -146.463)"/><path d="M160,176h2.685v2.685H160Zm0,0" transform="translate(-133.148 -146.463)"/><path d="M192,176h2.685v2.685H192Zm0,0" transform="translate(-159.778 -146.463)"/><path d="M128,240h2.685v2.685H128Zm0,0" transform="translate(-106.518 -199.722)"/><path d="M160,240h2.685v2.685H160Zm0,0" transform="translate(-133.148 -199.722)"/><path d="M192,240h2.685v2.685H192Zm0,0" transform="translate(-159.778 -199.722)"/><path d="M272,80h18.8v1.734H272Zm0,0" transform="translate(-226.352 -66.574)"/><path d="M272,144h18.8v1.734H272Zm0,0" transform="translate(-226.352 -119.833)"/><path d="M288,112h2.685v2.685H288Zm0,0" transform="translate(-239.667 -93.204)"/><path d="M320,112h2.685v2.685H320Zm0,0" transform="translate(-266.296 -93.204)"/><path d="M352,112h2.685v2.685H352Zm0,0" transform="translate(-292.926 -93.204)"/><path d="M288,176h2.685v2.685H288Zm0,0" transform="translate(-239.667 -146.463)"/><path d="M320,176h2.685v2.685H320Zm0,0" transform="translate(-266.296 -146.463)"/></g></svg>