<svg xmlns="http://www.w3.org/2000/svg" xmlns:xlink="http://www.w3.org/1999/xlink" width="400" height="303.57" viewBox="0 0 400 303.57"><defs><style>.a,.w{fill:#ef6d18;}.a,.f{opacity:0.1;}.b{fill:#3a3768;}.c{fill:#d48a9b;}.d{opacity:0.05;}.e{fill:#efc6cd;}.g{fill:#fff;}.h{fill:#d3dae1;}.i{fill:url(#a);}.j{fill:#585b8a;}.k{opacity:0.2;}.l{fill:#636992;}.m{fill:#ffd6d6;}.n{fill:#dce6f2;}.o{fill:#565988;}.p{fill:#505484;}.q{fill:#575988;}.r{fill:#d28690;}.s{fill:#575989;}.t{fill:#353045;}.u{fill:#f0f3f7;}.v{fill:#663d5c;}.x{opacity:0.3;}.y{opacity:0.15;}.z{fill:#ffd037;}.aa{fill:#65617d;}.ab{fill:#9d9cb5;}.ac{fill:#4b4770;}.ad{fill:#d4dfec;}</style><linearGradient id="a" x1="0.5" y1="1" x2="0.5" gradientUnits="objectBoundingBox"><stop offset="0" stop-color="gray" stop-opacity="0.251"/><stop offset="0.54" stop-color="gray" stop-opacity="0.122"/><stop offset="1" stop-color="gray" stop-opacity="0.102"/></linearGradient></defs><path class="a" d="M492.722,127.606c-.07.326-.136.652-.213.975a104.806,104.806,0,0,1-12.171,31.57c-.194.326-.388.652-.586.978a90.725,90.725,0,0,1-13.721,17.319,41.6,41.6,0,0,1-9.855,7.569c-5.287,2.762-11.468,3.884-17.542,4.8-6.309.956-12.706,1.755-19.084,2.616q-3.4.451-6.76.956c-6.162.912-12.281,1.967-18.253,3.367a107.011,107.011,0,0,0-21.3,7.166q-.81.366-1.6.777c-.528.264-1.059.531-1.579.8s-1.033.542-1.542.821c-.264.143-.528.286-.788.436s-.517.282-.769.429c-.762.425-1.509.861-2.257,1.3l-.029.018c-.495.289-.982.586-1.465.883-2.762,1.678-5.466,3.429-8.17,5.192l-1.7,1.1-2.634,1.7c-.513.333-1.037.667-1.553,1-.366.242-.733.484-1.132.733-1.92,1.209-3.865,2.4-5.862,3.528-.473.271-.949.542-1.429.806a81.2,81.2,0,0,1-12.611,5.686l-.059.022a57.532,57.532,0,0,1-6.7,1.891c-1.308.286-2.62.52-3.946.7a42.3,42.3,0,0,1-10.7.15c-6.987-.81-13.534-3.492-20.517-4.4-14.377-1.832-28.339,4.07-41.858,8.694q-4.986,1.7-10.046,3.191c-2.242.663-4.492,1.29-6.76,1.894a254.353,254.353,0,0,1-42.389,7.434,119.384,119.384,0,0,1-18.007.4,66.128,66.128,0,0,1-6.756-.733c-7.584-1.172-14.655-3.631-20.363-8.134a39.766,39.766,0,0,1-10.566-13.556,59.155,59.155,0,0,1-5.463-16.318c-.139-.773-.264-1.55-.366-2.326q-.275-1.993-.41-4.008a57.37,57.37,0,0,1,2.521-21.195c2.418-7.665,6.448-15.021,8.221-22.745q.11-.491.209-.978a33.866,33.866,0,0,0,.539-3.55c.9-9.489-2.565-18.74-5.287-28.02-.1-.322-.191-.648-.282-.975q-.44-1.546-.843-3.089c-2.521-9.812-3.22-20.315-.975-30.109.07-.326.154-.652.234-.975a44.082,44.082,0,0,1,8.287-16.974c4.206-5.276,9.727-9.669,15.626-13.527q4.312-2.821,8.918-5.272,3.3-1.759,6.756-3.33a133.05,133.05,0,0,1,60.419-11.632c1.1.048,2.2.106,3.3.187s2.3.176,3.451.282c13.431,1.3,26.5,4.451,39.477,7.892,4.349,1.154,8.69,2.337,13.028,3.5,1.931.513,3.858,1.026,5.789,1.524,9.456,2.444,19.051,4.657,28.768,6.309q3.374.583,6.756,1.062a193.525,193.525,0,0,0,23.627,2q4.613.092,9.229-.081,2.33-.084,4.664-.253c16.066-1.132,31.592-4.92,47.145-8.46q3.374-.769,6.76-1.517c2.96-.652,5.921-1.282,8.9-1.865,18.513-3.638,35.014-1.546,52.227,5.961,3.913,1.7,7.822,3.763,10.218,6.961s3,7.126,3.444,10.918c.634,5.4,1.048,10.87,1.205,16.37,0,.322,0,.648.022.975A146.936,146.936,0,0,1,492.722,127.606Z" transform="translate(-97.811 -40.039)"/><path class="a" d="M377.252,160.422h-1.209v.978h1.37Zm-13.713,0a.062.062,0,0,0,0,.026c-.033.267-.07.535-.106.806v.147h10.478v-.059l.733-.92Zm-28.083,0v-31.57H347.51c-.128-.084-.26-.172-.4-.253l-.176-.114-.227-.139c-.132-.077-.264-.154-.4-.227s-.223-.125-.341-.187l-.081-.044H335.456v-1.74l-.282.11-.3.139h-.022l-.062.033-.187.1-.187.1c-.183.1-.366.209-.55.322l-.176.117-.366.234c-.473.315-.938.645-1.418.953-.121.077-.242.154-.366.223-.26.154-.528.3-.8.432a3.063,3.063,0,0,1-.366.158l-.2.077-.183.062h0a8.581,8.581,0,0,1-1.319.344v30.863H310.6c0,.037.026.066.037.1.1.293.2.583.293.876H328.7v33.838h.275l.319.018.575.033.92.11.421.04.458.048h.07l.81.1.172.022.392.055.561.081h0l1.345-.059h0l.183.033a1.273,1.273,0,0,1,.227.037V161.4H363.4v-.147c.037-.271.073-.539.106-.806a.063.063,0,0,1,0-.026Zm41.8,0h-1.209v.978h1.37Zm-14.468,0c-.044.326-.084.652-.128.978h11.684l.795-.978Zm-27.328,0v-31.57H347.51c-.128-.084-.26-.172-.4-.253l-.176-.114-.227-.139c-.132-.077-.264-.154-.4-.227s-.223-.125-.341-.187l-.081-.044H335.456v-1.74l-.282.11-.3.139h-.022l-.062.033-.187.1-.187.1c-.183.1-.366.209-.55.322l-.176.117-.366.234c-.473.315-.938.645-1.418.953-.121.077-.242.154-.366.223-.26.154-.528.3-.8.432a3.057,3.057,0,0,1-.366.158l-.2.077-.183.062h0a8.579,8.579,0,0,1-1.319.344v30.863H310.6c0,.037.026.066.037.1.1.289.2.583.3.876H328.7v33.835h.275l.319.018.575.033.92.114.421.04.458.048h.07l.81.1.172.022.392.055.561.081h0l1.345-.059h0l.183.033a1.273,1.273,0,0,1,.227.037V161.4h27.236c.044-.326.084-.652.128-.978ZM426.881,94.68h76.012c0-.326,0-.652-.022-.975h-75.99V55.375q-3.385.733-6.76,1.517V93.705H337.453l-.209-.187.315-.278h0l30.75-27.632q-4.616.176-9.229.081L335.452,86.917V63.692q-3.385-.48-6.756-1.062V85.847L294.151,54.8c-4.338-1.161-8.679-2.345-13.028-3.5L328.1,93.519l-.209.187H241.65V43.439q-1.726-.161-3.451-.282c-1.1-.081-2.2-.139-3.3-.187V93.705h-60.43V54.6q-3.422,1.568-6.756,3.33V93.705H134.884c-.081.322-.165.648-.234.975h33.065v33.2H136.467c.092.326.187.652.282.975h30.966v31.57H141.5q-.1.487-.209.978h26.427v88.271c2.2.341,4.473.579,6.756.733v-89H234.89v81.163c2.268-.6,4.517-1.231,6.76-1.894V161.4H328.7v70.912a57.524,57.524,0,0,0,6.7-1.89l.059-.022v-69h84.665V194.66q3.371-.495,6.76-.949V161.4h60.2c.2-.326.392-.652.586-.978H426.881v-31.57h72.96c.077-.322.143-.648.213-.975H426.881Zm-252.41,0H234.89v33.2H174.471Zm0,65.742v-31.57H234.89v31.57ZM241.65,94.68H328.7v33.2H241.65Zm0,65.742v-31.57H328.7v31.57Zm178.472,0H335.456v-31.57h84.665Zm0-32.545H335.456V95.57l1.187-.89h83.478Zm-56.583,32.545a.062.062,0,0,0,0,.026c-.033.267-.07.535-.106.806v.147h10.478v-.059l.733-.92Zm13.713,0h-1.209v.978h1.37Zm-41.8,0v-31.57H347.51c-.128-.084-.26-.172-.4-.253l-.176-.114-.227-.139c-.132-.077-.264-.154-.4-.227s-.223-.125-.341-.187l-.081-.044H335.456v-1.74l-.282.11-.3.139h-.022l-.062.033-.187.1-.187.1c-.183.1-.366.209-.55.322l-.176.117-.366.234c-.473.315-.938.645-1.418.953-.121.077-.242.154-.366.223-.26.154-.528.3-.8.432a3.063,3.063,0,0,1-.366.158l-.2.077-.183.062h0a8.581,8.581,0,0,1-1.319.344v30.863H310.6c0,.037.026.066.037.1.1.293.2.583.293.876H328.7v33.838h.275l.319.018.575.033.92.11.421.04.458.048h.07l.81.1.172.022.392.055.561.081h0l1.345-.059h0l.183.033a1.273,1.273,0,0,1,.227.037V161.4H363.4v-.147c.037-.271.073-.539.106-.806a.063.063,0,0,1,0-.026Z" transform="translate(-105.142 -40.31)"/><path class="a" d="M318.765,118.137h.524a1.063,1.063,0,0,1-.641-.854h0c0-.674,1.008-1.224,2.239-1.224h15.666c1.231,0,2.235.55,2.235,1.224h0c0,.67-1,1.224-2.235,1.224h-.524a1.052,1.052,0,0,1,.641.85c0,.575-.733,1.059-1.711,1.187h4.51c1.227,0,2.235.55,2.235,1.224s-1.008,1.224-2.235,1.224H323.8c-1.227,0-2.235-.553-2.235-1.224,0-.575.733-1.055,1.711-1.187h-4.51c-1.231,0-2.235-.55-2.235-1.224S317.534,118.137,318.765,118.137Z" transform="translate(-220.386 -86.622)"/><path class="a" d="M782.2,149.907h.524a1.062,1.062,0,0,1-.638-.854h0c0-.674,1-1.224,2.235-1.224h15.666c1.231,0,2.239.55,2.239,1.224h0c0,.67-1.008,1.22-2.239,1.22h-.52a1.062,1.062,0,0,1,.637.854c0,.575-.733,1.059-1.711,1.187h4.51c1.231,0,2.235.55,2.235,1.224s-1,1.224-2.235,1.224H787.243c-1.231,0-2.239-.553-2.239-1.224,0-.575.733-1.059,1.711-1.187H782.2c-1.227,0-2.235-.55-2.235-1.224S780.978,149.907,782.2,149.907Z" transform="translate(-514.034 -106.752)"/><path class="a" d="M253.129,285.867h.52a1.059,1.059,0,0,1-.637-.854h0c0-.67,1.008-1.224,2.235-1.224h15.67c1.227,0,2.235.553,2.235,1.224h0c0,.674-1.008,1.224-2.235,1.224h-.524a1.048,1.048,0,0,1,.637.85c0,.575-.733,1.059-1.711,1.187h4.51c1.231,0,2.238.553,2.238,1.224s-1.008,1.224-2.238,1.224H258.177c-1.231,0-2.235-.55-2.235-1.224,0-.572.733-1.055,1.711-1.187h-4.525c-1.231,0-2.239-.55-2.239-1.224S251.912,285.867,253.129,285.867Z" transform="translate(-178.795 -192.9)"/><ellipse class="a" cx="23.8" cy="78.32" rx="23.8" ry="78.32" transform="translate(211.087 215.481) rotate(-78.45)"/><path class="b" d="M828.56,388.289s4.166-20.447,20.07-18.553c0,0,10.991.755,13.252,7.95v15.9Z" transform="translate(-544.822 -247.279)"/><path class="c" d="M735.805,385.252,594.176,373.51,576,377.3l1.136,25.371,1.238.15,1.411,38.1,138.977,24.99,14.772-12.5v-41.3l1.89-1.11Z" transform="translate(-364.968 -236.666)"/><path class="d" d="M985.188,405.56l-.381,25.749-15.336,7.2-.191-26.888Z" transform="translate(-614.161 -256.973)"/><path class="d" d="M980.762,478.94l.187,40.521-14.769,12.5L967.129,485Z" transform="translate(-612.197 -303.469)"/><path class="d" d="M582.816,455.42l141.45,17.26.073-3.275L582.71,454.13Z" transform="translate(-369.22 -287.749)"/><path class="d" d="M981.744,480.427V478.94l-14.014,6.184v3.283Z" transform="translate(-613.179 -303.469)"/><path class="e" d="M575.48,377.3l18.176-3.788,141.629,11.742-15.9,6.056Z" transform="translate(-364.639 -236.666)"/><path class="f" d="M952.434,407.55l6.95.454-11.519,3.448L942,411.031Z" transform="translate(-596.876 -258.234)"/><path class="g" d="M952.434,406.72l6.95.454-11.519,3.451L942,410.2Z" transform="translate(-596.876 -257.708)"/><path class="h" d="M1022.32,444.5c.275-.117.564.106.857.161.168.033.341,0,.509.033.341.044.678.271,1,.158" transform="translate(-667.593 -294.71)"/><path class="h" d="M1021.34,445.071c.271-.117.564.1.857.161.169.029.341,0,.509.029.341.048.678.275,1,.161" transform="translate(-666.972 -295.07)"/><path class="h" d="M1019.08,446.211c.275-.117.568.1.861.158.165.033.341,0,.506.033.344.048.682.275,1,.158" transform="translate(-665.54 -295.793)"/><path class="f" d="M870.434,398.21l6.95.458-11.519,3.448L860,401.691Z" transform="translate(-544.918 -252.316)"/><path class="g" d="M870.434,397.39l6.95.454-11.519,3.448L860,400.871Z" transform="translate(-544.918 -251.797)"/><path class="h" d="M940.32,435.171c.275-.117.564.1.857.161.168.029.341,0,.509.029.341.048.678.275,1,.161" transform="translate(-615.635 -288.798)"/><path class="h" d="M939.34,435.741c.271-.117.564.1.857.158.169.033.341,0,.509.033.341.048.678.275,1,.158" transform="translate(-615.015 -289.159)"/><path class="h" d="M937.08,436.872c.275-.117.568.106.861.161.165.033.341,0,.506.033.344.044.681.275,1,.158" transform="translate(-613.583 -289.875)"/><path class="f" d="M909.764,402.88l6.954.454L905.2,406.786l-5.869-.425Z" transform="translate(-569.839 -255.275)"/><path class="g" d="M909.764,402.06l6.954.454L905.2,405.962l-5.869-.425Z" transform="translate(-569.839 -254.756)"/><path class="h" d="M979.65,439.841c.275-.117.568.1.861.158.165.033.337,0,.506.033.341.044.682.275,1,.158" transform="translate(-640.556 -291.757)"/><path class="h" d="M978.67,440.4c.275-.117.568.106.861.161.165.033.337,0,.506.033.341.044.681.275,1,.158" transform="translate(-639.935 -292.112)"/><path class="h" d="M976.42,441.541c.271-.117.564.1.857.161.169.029.341,0,.509.029.341.048.678.275,1,.161" transform="translate(-638.509 -292.834)"/><ellipse class="a" cx="74.183" cy="15.27" rx="74.183" ry="15.27" transform="translate(108.388 259.4)"/><path class="i" d="M529.27,305.953a49.7,49.7,0,0,0-3.924-13.589l.238-2.345s.051-1.172-.026-2.931a13.335,13.335,0,0,1,.429-3.253c.641-2.033-.8-4.532-.964-4.763s.081-4.69-1.363-6.877-11.057-6.254-11.057-6.254-.517-1.081-1.246-2.345l.066-.128a13.776,13.776,0,0,0-2.2-2.964c-.59-.63-1.158-.989-1.616-.813a13.185,13.185,0,0,1-.425-1.858c.1.026.194.051.289.07a2.99,2.99,0,0,0,1.209.029,3.592,3.592,0,0,0,1.986-1.759c2.484-3.774,4.624-7.914,5.06-12.38a7.868,7.868,0,0,0-.128-2.733,9.224,9.224,0,0,0-.857-2,16.047,16.047,0,0,0-2.418-3.565,13.775,13.775,0,0,0-6.5-3.557,22.488,22.488,0,0,0-8.39-.626c-.733.084-1.466.205-2.2.253a22.838,22.838,0,0,1-2.788-.048l-4.8-.278-.022-.073-.8-.048a2.022,2.022,0,0,0,.392,1.956,3.338,3.338,0,0,1,.81,1.89,3.864,3.864,0,0,1-.927,1.832,1.762,1.762,0,0,0-.3,1.916,1.1,1.1,0,0,0,.194.212,2.415,2.415,0,0,0,1.762.469h.11a11.932,11.932,0,0,0-2.429,7.225,12.149,12.149,0,0,0,6.628,10.764c.07.238.139.484.205.733a22.445,22.445,0,0,1,.769,7.921l-.084.183-.051-.194s-5.65,3.832-7.328,4.847-3.363,4.455-3.444,5.393-2.726,15.084-2.726,15.084a34.661,34.661,0,0,0-1.326,4.367l-3.374,2.964s-6.961.626-8.976.158l.059.388a30.441,30.441,0,0,0-5.408-.733,5.734,5.734,0,0,0-2.931.392l-.07.033-.055.026a11.614,11.614,0,0,0-3.078.865c-.117.048-.224.1-.326.143l.022-.48-7.533-.388-3.847-.78s-1.363-1.1-2.165-.938-2.484-.938-2.484-.938a6.711,6.711,0,0,0-1.238-.769c-.128-.887-.209-1.425-.209-1.425s-2.993-11.878-5.236-18.861c-1.5-4.664-3.664-6.961-4.939-7.961-.568-.989-.942-1.627-.942-1.627a7.277,7.277,0,0,0-1.938-2.836c-.055-.088-.1-.132-.117-.132a.429.429,0,0,0-.216.033,23.3,23.3,0,0,1-.033-10.493,11.581,11.581,0,0,0,4.228-8.925v-.311a11.53,11.53,0,0,0-2.722-7.437l-.125-.139a.987.987,0,0,0,.1-.077,1.964,1.964,0,0,0,.692-1.891,12.955,12.955,0,0,0-1-1.923,12.455,12.455,0,0,1-.407-1.568,4.836,4.836,0,0,0-1.154-2.011l.055.147a6.962,6.962,0,0,0-6.13-2.059c-1.652.264-3.191,1.033-4.851,1.271-1.191.169-2.4.059-3.6.18a9.347,9.347,0,0,0-3.195.923,1.832,1.832,0,0,0-.678.5,2.681,2.681,0,0,0-.337.942c-.407,1.484-1.7,2.543-2.631,3.781a8.848,8.848,0,0,0-1.773,4.887,3.825,3.825,0,0,0,.128,1.337c.081.26.205.506.264.769a5.28,5.28,0,0,1-.443,2.407,4.686,4.686,0,0,0,.26,3.056c1.447,3.239,6.2,4.32,7.188,7.72a9.456,9.456,0,0,0,2.378.733c.066.337.125.678.172,1.022a.275.275,0,0,0-.062.037,7.287,7.287,0,0,0-1.6,3.664l-.154.125c-.524.432-2.315,1.883-3.935,3-1.923,1.33-5.129,5.785-7.371,7.115s-4.089,9.526-3.605,12.5,2.484,11.332,1.682,14.38,1.2,16.959,1.2,16.959a20.485,20.485,0,0,1,3.928,1.165l-.04.608-.121,1.832s-3.631,13.131-2.242,23.239-.641,11.149-.641,11.149.425,4.481-.641,6.045-1.282,5-1.282,5-.106,7.712.106,9.892.319,6.151-.429,7.089-2.136,7.082-2.03,8.958-2.671,6.151-1.176,11.673-4.4,5.627-4.4,5.627.751,8.427,2.352,10.837l.234.344c-.04.139-.081.286-.125.443-.6,2.2-1.432,5.668-.857,6.507.854,1.253,1.282,1.04,1.282,1.04l.319,5.628s6.411,5.419,11.328,5.214,3.953-5.214,3.953-5.214l-4.188-10.859-.143-.366,4.653-8.793s1.282-3.854,1.6-5.21,2.059-6.159,2.059-6.159,4.4-10.42,4.488-11.673.429-8.02,1.282-9.379,3.206-9.159,3.206-9.159l.059.051a3.089,3.089,0,0,1,.8,3.074,24.56,24.56,0,0,0-.216,6.042,41.1,41.1,0,0,1-.641,5.214c-.429,1.773-.531,16.256.216,19.693a55.75,55.75,0,0,1,.55,9.852c-.5,2.07-.942,4.642-.125,4.946,1.392.524,8.445.418,8.445.418s2.99-1.044,7.053,2.6,16.56-1.04,16.56-1.04,3.847-1.044-3.741-4.063c-5.294-2.107-8.712-3.51-10.947-5.012.051-.1.106-.2.154-.3,0,0-3.1-2.931-.535-8.126a22.63,22.63,0,0,0,2.458-9.588l.429-17.509-1.282-23.243-.993-24.393.176-.059c.169,4.484,1.044,15.161,5.628,13.091,5.77-2.6.854-9.379.854-9.379l-2.59-5.049.773-.264-2.9-9.365a21.121,21.121,0,0,1-.11-5.521,21.877,21.877,0,0,0-.066-3.224c3.8-.663,7.43-1.367,8.082-1.205.769.187,5.074.224,6.767.231-.553.432-1,.861-1,.861l6.892,4.638s2.337-1.279,2.825-2.634a3.04,3.04,0,0,0,1.29-.689c.073,1.6.5,3.334,1.979,3.374a2.564,2.564,0,0,0,1.077-.212l11.27-2.231-.967,6.042.674,1.2c-.341,5.1-.733,10.508-1.077,15.267l-.158,1.041.081.018c-.535,7.327-.964,12.878-.964,12.878a6.752,6.752,0,0,1,2.81-2.825l.073,10.874s.564,17.194.564,19.539.077,7.58.077,7.58,1.205,6.408,1.923,8.518,1.282,11.724,1.282,11.724,1.685,2.656.964,3.664,2.806,3.2,2.806,3.2-2.246,3.048-2.407,5.082c-.018.234.213.484.63.733-.132.106-.267.213-.418.315a7.319,7.319,0,0,1-4.858.982c-6.254-.55-10.661,5.235-6.815,6.408s15.388,1.407,15.388,1.407,3.5-2.18,6.228-1.2c-.04,2.294.073,4.4.092,4.675l-.033.026a25.414,25.414,0,0,1-7.818,5.016c-4.4,1.484-5.371,7.5.319,8.284s14.025-.938,14.025-.938,4.327-3.2,7.613-3.906,6.093-2.268,5.532-4.144c-.366-1.2-1.308-4.338-1.945-6.448q-.055-.19-.11-.366c.1-.22.2-.447.289-.681,0,0-1.682-8.753-.319-10.94s.641-24.074.641-24.074-2.326-5.547-1.121-8.907-1.923-8.13-1.923-8.13a148.5,148.5,0,0,1,1.257-14.886l.121-.659a30.011,30.011,0,0,0,4.47-1.726s.8-12.039,1.282-14.772c.048-.256.114-.67.194-1.209l.366-1.931h0l.432-2.2h0l1.465-7.492,2.645-3.422,6.815-6.961S530.072,312.91,529.27,305.953ZM424.179,262.966l-.051.037a.628.628,0,0,1-.018-.081A.331.331,0,0,0,424.179,262.966Zm67.329,8.533-.264.575.964-.96L490.9,272.58l.44-.923ZM485,284.945c-.253.67-.524,1.4-.806,2.151l.517-1.542Z" transform="translate(-265.462 -156.333)"/><path class="j" d="M595.692,442.595s-.9,5.976,1.8,6.052,4.492-4.609,4.492-4.609l-1.1-3.748Z" transform="translate(-397.179 -292.062)"/><path class="k" d="M595.692,442.595s-.9,5.976,1.8,6.052,4.492-4.609,4.492-4.609l-1.1-3.748Z" transform="translate(-397.179 -292.062)"/><path class="l" d="M409.186,764.676c-4.792.209-11.043-5.206-11.043-5.206l-.311-5.624s-.414.209-1.249-1.04c-.56-.839.246-4.316.835-6.5.286-1.07.52-1.832.52-1.832l10.515,2.814.5,1.33,4.081,10.852S413.974,764.467,409.186,764.676Z" transform="translate(-270.99 -484.799)"/><path class="l" d="M508.418,735.46s-12.182,4.686-16.12,1.04-6.873-2.6-6.873-2.6-6.873.106-8.229-.418c-.8-.3-.366-2.909.132-4.983.337-1.432.7-2.616.7-2.616s11.973-4.063,13.849-1.564a8.98,8.98,0,0,0,2,1.905c2.169,1.568,5.558,2.99,10.918,5.177C512.166,734.416,508.418,735.46,508.418,735.46Z" transform="translate(-321.908 -471.513)"/><path class="m" d="M528.119,496.35l3.33,6.664s4.792,6.771-.832,9.372-5.518-14.992-5.518-14.992Z" transform="translate(-352.541 -327.583)"/><path class="n" d="M495.25,338.61s3.645,1.667,5.833,8.643,5.1,18.85,5.1,18.85,1.978,13.431,1.663,16.765a21.615,21.615,0,0,0,.106,5.518l2.81,9.372-5.624,1.978L496.5,366.623Z" transform="translate(-333.628 -227.635)"/><path class="d" d="M495.25,338.61s3.645,1.667,5.833,8.643,5.1,18.85,5.1,18.85,1.978,13.431,1.663,16.765a21.615,21.615,0,0,0,.106,5.518l2.81,9.372-5.624,1.978L496.5,366.623Z" transform="translate(-333.628 -227.635)"/><path class="f" d="M410.206,747.3l.5,1.33-.615,1.176c-2.4,1.041-8.331.209-8.331.209s-1.1-1.4-2.6-3.693c.286-1.07.52-1.832.52-1.832Z" transform="translate(-272.743 -484.811)"/><path class="f" d="M495.193,726.711c-3.037,6.88-13.362,4.327-16.23,3.466-.473-.143-.733-.238-.733-.238s.018-.561.026-1.443c.337-1.432.7-2.616.7-2.616s11.973-4.063,13.849-1.564a8.983,8.983,0,0,0,2,1.905A3.526,3.526,0,0,0,495.193,726.711Z" transform="translate(-322.843 -471.513)"/><path class="o" d="M440.424,551.521c-2.5,5.2.524,8.122.524,8.122-3.037,6.877-13.362,4.327-16.23,3.462-.473-.139-.733-.234-.733-.234s.209-7.188-.52-10.625-.627-17.908-.209-19.678a41.893,41.893,0,0,0,.623-5.21,25.388,25.388,0,0,1,.209-6.038,3.118,3.118,0,0,0-.777-3.07l-.055-.055s-2.29,7.811-3.125,9.159-1.143,8.122-1.249,9.372-4.375,11.665-4.375,11.665-1.663,4.788-1.975,6.14-1.564,5.21-1.564,5.21l-5.019,9.687c-2.4,1.04-8.331.209-8.331.209s-1.143-1.465-2.708-3.854-2.29-10.826-2.29-10.826,5.726-.106,4.268-5.624,1.249-9.79,1.147-11.665,1.249-8.016,1.978-8.954.623-4.895.414-7.082-.1-9.892-.1-9.892.209-3.437,1.249-5,.627-6.042.627-6.042,1.975-1.041.623-11.141,2.2-23.221,2.2-23.221l.121-1.832.191-2.968s29.783-1.876,32.179.414a7.9,7.9,0,0,1,1.52,2.18,21.691,21.691,0,0,1,1.722,5.543L442,501.228l1.249,23.221-.418,17.494A23.257,23.257,0,0,1,440.424,551.521Z" transform="translate(-268.599 -305.068)"/><path class="f" d="M484.014,538.42,480.889,606.1l-3.752,6.17c-.473-.139-.733-.234-.733-.234s.209-7.188-.52-10.625-.627-17.908-.209-19.678a41.9,41.9,0,0,0,.623-5.21,25.386,25.386,0,0,1,.209-6.038,3.118,3.118,0,0,0-.777-3.07l.051-.366Z" transform="translate(-321.018 -354.24)"/><path class="f" d="M406.785,732.658s8.123-3.228,9.372-2.2-9.577,2.6-9.577,2.6Z" transform="translate(-277.444 -475.793)"/><path class="f" d="M503.524,713.5c-.311.106-8.225,2.931-7.5,5.935S503.524,713.5,503.524,713.5Z" transform="translate(-334.091 -465.175)"/><path class="m" d="M449.07,286.365s2.653,6.4,1.249,9.687,15.15,8.9,15.15,8.9-4.84-12.5-.154-19.528S449.07,286.365,449.07,286.365Z" transform="translate(-304.367 -192.1)"/><path class="p" d="M670.48,777.139c-3.2.7-7.419,3.906-7.419,3.906s-8.122,1.718-13.669.938-4.605-6.8-.312-8.28c2.979-1.026,6.031-3.557,7.624-5.008.7-.648,1.121-1.1,1.121-1.1l15.545-3.125s.253.868.6,2.066c.623,2.114,1.542,5.25,1.894,6.444C676.416,774.875,673.683,776.436,670.48,777.139Z" transform="translate(-428.857 -497.471)"/><path class="p" d="M646.824,745.8s-6.562.7-9.295-.857-6.639.938-6.639.938-11.248-.235-15-1.407.546-6.961,6.639-6.4a7,7,0,0,0,4.737-.982A4.99,4.99,0,0,0,629.333,734l13.19.78,1.832,4.675Z" transform="translate(-409.183 -478.165)"/><path class="f" d="M666.656,741.588s-15.329-2.506-17.286-4.5A4.99,4.99,0,0,0,651.433,734l13.189.78,1.832,4.675Z" transform="translate(-431.282 -478.165)"/><path class="q" d="M634.52,513.575l.158,22.88s.546,17.183.546,19.528.077,7.573.077,7.573,1.172,6.4,1.876,8.514,1.249,11.724,1.249,11.724,1.641,2.656.938,3.664,2.733,3.2,2.733,3.2-2.2,3.048-2.341,5.078,17.491,4.913,17.491,4.913l-6.87-70.443-5.47-17.648Z" transform="translate(-421.873 -337.854)"/><path class="f" d="M634.52,513.575l.158,22.88s.546,17.183.546,19.528.077,7.573.077,7.573,1.172,6.4,1.876,8.514,1.249,11.724,1.249,11.724,1.641,2.656.938,3.664,2.733,3.2,2.733,3.2-2.2,3.048-2.341,5.078,17.491,4.913,17.491,4.913l-6.87-70.443-5.47-17.648Z" transform="translate(-421.873 -337.854)"/><path class="f" d="M693.281,766.555c-5.1,12.167-17.242,2.777-17.242,2.777s0-.235-.029-.638c.7-.648,1.121-1.1,1.121-1.1l15.545-3.125S692.929,765.357,693.281,766.555Z" transform="translate(-448.162 -497.471)"/><path class="q" d="M672.693,601.451c-5,12.823-17.417,3.2-17.417,3.2s-.392-6.639.392-9.683-.861-12.186-.861-12.186-.938-8.122-1.8-9.995-.78-5.624-.78-5.935a11.331,11.331,0,0,0-.392-4.532,30.5,30.5,0,0,1-1.1-5.935,62.633,62.633,0,0,0-.7-9.449l-2.422-12.09-4.375-24.76,1.367-.235,24.485-4.294s4.609,23.448,3.044,25.851a10.085,10.085,0,0,0-.879,3.169c-.894,5.32-1.227,14.871-1.227,14.871s3.045,4.763,1.876,8.123,1.1,8.9,1.1,8.9.7,21.869-.626,24.056S672.693,601.451,672.693,601.451Z" transform="translate(-427.398 -333.419)"/><path class="r" d="M685.688,303.977s-22.18,15.619-17.183,7.807c2.693-4.206,2.2-9.562,1.143-13.607a32.109,32.109,0,0,0-2.2-5.968s18.846-8.016,16.348-.832a13.461,13.461,0,0,0-.733,5.217A13.922,13.922,0,0,0,685.688,303.977Z" transform="translate(-442.738 -195.812)"/><path class="r" d="M588.385,426.462s-9.372-2.708-10.933-.051.469,8.485,3.3,9.423,9.321-3.177,9.321-3.177Z" transform="translate(-385.37 -282.529)"/><path class="j" d="M614.275,416l-3.906,3.594s-6.8.623-8.749.154c0,0,1.8,12.028-.78,13.512l15.776-3.2Z" transform="translate(-400.532 -276.672)"/><path class="f" d="M614.275,416l-3.906,3.594s-6.8.623-8.749.154c0,0,1.8,12.028-.78,13.512l15.776-3.2Z" transform="translate(-400.532 -276.672)"/><path class="f" d="M460.082,254.013a11.724,11.724,0,0,1-11.724,11.724c-6.016-2.891-11.724-5.243-11.724-11.724a11.724,11.724,0,1,1,23.43,0Z" transform="translate(-296.481 -166.31)"/><path class="m" d="M460.171,254a11.7,11.7,0,1,1-2.653-7.412A11.7,11.7,0,0,1,460.171,254Z" transform="translate(-296.571 -166.616)"/><path class="f" d="M460.7,464.163a26.5,26.5,0,0,1-3.631,1.883s-5.935-.861-6.793.154-8.427,1.407-8.427,1.407-11.559-.546-13.277-2.03a7.037,7.037,0,0,0-1.755-1.041l.19-2.968s29.783-1.876,32.179.414A7.9,7.9,0,0,1,460.7,464.163Z" transform="translate(-290.269 -305.087)"/><path class="n" d="M450.6,365.358c-.234,1.326-5.078,3.356-5.078,3.356s-5.935-.857-6.793.158-8.427,1.407-8.427,1.407-11.559-.55-13.277-2.033-5.547-2.2-5.547-2.2-1.953-13.9-1.169-16.945-1.172-11.405-1.641-14.373,1.326-11.167,3.514-12.493,5.312-5.781,7.185-7.108c1.579-1.117,3.323-2.565,3.832-3l.15-.125a7.394,7.394,0,0,1,1.564-3.664c1.249-1.242,12.728,7.888,12.728,7.888s.081.7.861-.623c.176-.3,1.689,1.887,1.953,2.81,0,0,6.247,10.936,6.639,13.189s2.03,9.606,2.341,11.4c.081.462.213,2.081.366,4.25.029.425.055.876.088,1.345.231,3.6.48,8.192.63,11.665,0,.4.033.777.044,1.143A38.89,38.89,0,0,1,450.6,365.358Z" transform="translate(-278.721 -208.381)"/><path class="f" d="M415,387.21s4.294,5.232,5.7,5.232S415,387.21,415,387.21Z" transform="translate(-282.779 -258.43)"/><path class="f" d="M429,417.91s-7.031,7.654-6.093,9.06S429,417.91,429,417.91Z" transform="translate(-287.737 -277.882)"/><path class="f" d="M425.62,438.951s8.06-8.826,8.427-11.87Z" transform="translate(-289.508 -283.692)"/><path class="f" d="M453.33,444.628s9.295-4.92,10.075-8.826S453.33,444.628,453.33,444.628Z" transform="translate(-307.066 -288.747)"/><path class="f" d="M483.29,329.819,482,332.94l2.147,1.015,2.11,5.9s5.818,11.636,5.584,17.688a107.219,107.219,0,0,0,1.055,15.15l3.356-.623-1.583-17.8a25.679,25.679,0,0,0-2.044-7.991c-2.682-6.14-7.672-17.476-7.987-17.476-.429,0-.128.158-.128.158Z" transform="translate(-325.232 -221.419)"/><path class="s" d="M484.14,328.965l-1.29,3.125L485,333.1l2.107,5.9s5.818,11.636,5.584,17.689a107.222,107.222,0,0,0,1.055,15.15l3.36-.623-1.586-17.8a25.58,25.58,0,0,0-2.041-7.991c-2.682-6.144-7.672-17.476-7.983-17.476-.432,0-.132.158-.132.158Z" transform="translate(-325.771 -220.881)"/><path class="m" d="M576.741,437.2c-1.634-.125-5.554-2.107-7.111-2.931l-.66-.366.081-6.049a10.645,10.645,0,0,1,1.194-.6c2.081-.909,6.349-2.143,8.489,1.832C581.621,434.407,578.811,437.335,576.741,437.2Z" transform="translate(-380.339 -283.212)"/><path class="f" d="M457.41,246.524a1.73,1.73,0,0,1-.546.224c-1.359.3-2.905-.872-4.07-.121a2.949,2.949,0,0,0-.971,2.261q-.249,2.2-.5,4.367A5.387,5.387,0,0,1,451,254.76a3.778,3.778,0,0,1-3.594,1.912,2.143,2.143,0,0,1-1.55-.513c-.253-.256-.388-.616-.667-.85-1.832-1.535-2.389,2.228-1.905,3.3.777,1.748,3.535,3.433,2.378,5.653a2.118,2.118,0,0,1-.85.854,11.724,11.724,0,1,1,12.6-18.59Z" transform="translate(-296.461 -166.548)"/><path class="t" d="M438.358,246.134c.275.231.414.59.667.846a2.147,2.147,0,0,0,1.55.513,3.759,3.759,0,0,0,3.59-1.916,5.218,5.218,0,0,0,.326-1.5l.5-4.367a2.937,2.937,0,0,1,.971-2.261c1.165-.733,2.711.418,4.07.121a1.989,1.989,0,0,0,1.466-2.293,12.908,12.908,0,0,0-.967-1.92,12.542,12.542,0,0,1-.4-1.564c-.758-2.843-4.1-4.44-7-3.964-1.612.267-3.11,1.037-4.726,1.271-1.158.169-2.341.059-3.51.183a8.86,8.86,0,0,0-3.114.92,1.81,1.81,0,0,0-.659.5,2.753,2.753,0,0,0-.33.938c-.392,1.466-1.652,2.546-2.565,3.781a9.01,9.01,0,0,0-1.737,4.876,3.909,3.909,0,0,0,.125,1.337c.077.256.2.506.256.769a5.36,5.36,0,0,1-.432,2.4,4.807,4.807,0,0,0,.256,3.056c1.407,3.235,6.042,4.316,7.005,7.712a7.693,7.693,0,0,0,2.726.733,2.629,2.629,0,0,0,2.4-1.227c1.154-2.2-1.6-3.906-2.378-5.649C435.966,248.354,436.512,244.595,438.358,246.134Z" transform="translate(-289.94 -157.387)"/><path class="f" d="M683.841,291.377a13.461,13.461,0,0,0-.733,5.217c-.564.48-1.18-.956-1.832-.586-1.788,1.033-3.854,3.492-6.067,3.492a12.152,12.152,0,0,1-5.521-1.323,32.1,32.1,0,0,0-2.2-5.968S686.34,284.193,683.841,291.377Z" transform="translate(-442.763 -195.812)"/><path class="r" d="M679.631,262.686A12.186,12.186,0,1,1,667.446,250.5,12.186,12.186,0,0,1,679.631,262.686Z" transform="translate(-435.014 -171.807)"/><path class="u" d="M668.308,326.443s-2.294,2.5-2.6,2.7-6.961,28.211-7.078,28.537-7.917,25.613-7.917,25.613l-12.5,6.144,1.044-30.929L648.414,333s3.023-3.437,3.957-4.686,12.6-8.749,12.6-8.749l1.993,4.107Z" transform="translate(-424.211 -215.571)"/><path class="f" d="M690.6,325.387l-14.369,10.288L676,330.025c.938-1.249,12.6-8.745,12.6-8.745Z" transform="translate(-448.156 -216.655)"/><path class="u" d="M691.463,323.677l-14.369,10.288-.223-5.646c.938-1.253,12.6-8.749,12.6-8.749Z" transform="translate(-448.707 -215.571)"/><path class="j" d="M644.95,336.59l.48,2.513-3.213,3.264,2.565-5.741s-5.5,3.829-7.144,4.843-3.3,4.452-3.36,5.389-2.656,15.073-2.656,15.073-1.953,5.232-1.4,6.716-2.968,48.266-2.968,48.266a6.961,6.961,0,0,1,4.7-3.6l-1.253-27.647s1.524-18.392,1.6-18.626,3.554-10.9,3.554-10.9Z" transform="translate(-417.266 -226.355)"/><path class="f" d="M648.754,344.3l-.249,5.129S645.028,360.4,643.86,362.2s-4.726,12.5-4.726,12.5l-2,18.59-3.437,1.564L632,391.731l2.814-17.952s5.309-15.15,6.093-16.714l3.917-8.251Z" transform="translate(-420.276 -231.241)"/><path class="v" d="M647.875,343.45l-.245,5.129s-3.477,10.973-4.649,12.768-4.723,12.5-4.723,12.5l-1.993,18.586-3.437,1.561-1.718-3.121,2.814-17.952s5.309-15.153,6.089-16.714l3.946-8.24Z" transform="translate(-419.712 -230.702)"/><path class="r" d="M566.31,447.364l6.716,4.649s4.737-2.656,1.978-4.375a12.233,12.233,0,0,0-6.093-1.978C568.025,445.66,566.31,447.364,566.31,447.364Z" transform="translate(-378.653 -295.465)"/><path class="r" d="M579.157,425.781a1.033,1.033,0,0,0-.487.883c0,1.425.161,5.2,1.356,3.5,1.466-2.085,1.2-3.957,3.437-2.6a13.19,13.19,0,0,1,3.59,3.3l-.623-4.477S581.828,424.1,579.157,425.781Z" transform="translate(-386.485 -282.478)"/><path class="f" d="M674.185,531.371a10.08,10.08,0,0,0-.879,3.169,26.473,26.473,0,0,1-23.715-4.576,119.536,119.536,0,0,1-2.968-12.493,40.721,40.721,0,0,1,.037-7.657l24.485-4.294S675.749,528.95,674.185,531.371Z" transform="translate(-429.439 -333.394)"/><path class="j" d="M688.207,343.471a24.27,24.27,0,0,0-.388,6.17L682.195,376.2s-2.733,20.462-3.2,23.2-1.249,14.761-1.249,14.761a26.453,26.453,0,0,1-28.211-2.81,119.737,119.737,0,0,1-2.968-12.5c-.784-4.638,1.524-23.221,2.616-31.475.326-2.444.546-3.982.546-3.982l4.1-15.23s5.038-12.849,6.914-16.6,9.408-12.167,9.408-12.167c.934-.594,2.429,1.5,3.539,3.411.839,1.443,1.466,2.784,1.466,2.784s9.372,4.059,10.775,6.228,1.172,6.639,1.33,6.873S688.833,341.441,688.207,343.471Z" transform="translate(-429.404 -215.394)"/><path class="f" d="M671.47,334.561s.7,4.14-1.1,5.389c-1.74,1.209-14.7,26.683-15.5,28.273.326-2.447.546-3.986.546-3.986l4.1-15.227s5.041-12.849,6.914-16.6,9.412-12.167,9.412-12.167c.934-.594,2.425,1.5,3.536,3.411C677.7,327.131,674.211,333.7,671.47,334.561Z" transform="translate(-434.767 -215.932)"/><path class="j" d="M670.608,333.711s.7,4.14-1.1,5.389S654.817,365.779,654,367.369c.326-2.444.546-3.982.546-3.982l4.1-15.23s5.038-12.849,6.913-16.6,9.409-12.167,9.409-12.167c.934-.594,2.429,1.5,3.539,3.411C676.84,326.277,673.345,332.853,670.608,333.711Z" transform="translate(-434.216 -215.394)"/><path class="w" d="M619.636,412.758l-4.408,22.931v0l-.421,2.195v0l-.949,4.935-4.048-.857-1.887-.4-26.111-5.532-1.92-.407-4.382-.927.857-5.693.355-2.367,3.162-20.993Z" transform="translate(-364.658 -257.03)"/><path class="r" d="M668.944,511.92s-10.387,3.748-8.122,8.2,16.791-3.437,16.791-3.437Z" transform="translate(-438.334 -337.449)"/><path class="f" d="M703.8,599.1c0,.311.392,4.3,1.953,5.7S703.8,599.1,703.8,599.1Z" transform="translate(-465.77 -392.688)"/><path class="f" d="M675.24,637.68s1.872,5.155,9.291,7.265S675.24,637.68,675.24,637.68Z" transform="translate(-447.674 -417.134)"/><path class="f" d="M683.731,262.74a12.182,12.182,0,0,1-6.107,10.563,6.485,6.485,0,0,1-1.832-1.528,2.367,2.367,0,0,1-.626-2.293c.256-.619.934-1.011,1.1-1.652a2.434,2.434,0,0,0-.059-1.18c-.136-.6-.264-1.209-.4-1.81-.114-.513-.315-1.117-.824-1.242s-.934.3-1.334.616a4.181,4.181,0,0,1-4.03.663c-1.176-.634-.846-2.755-1.037-3.9a.681.681,0,0,0-.256-.517,1.07,1.07,0,0,0-.531-.037,1.53,1.53,0,0,1-1.326-1.176,10.129,10.129,0,0,1-.212-1.887,2.1,2.1,0,0,0-.843-1.63,2.6,2.6,0,0,0-1.388-.227l-2.3.026a12.186,12.186,0,0,1,21.982,7.225Z" transform="translate(-439.114 -171.861)"/><path class="v" d="M670.3,258.531c.4-.315.839-.733,1.334-.612s.707.733.821,1.238l.4,1.806a2.455,2.455,0,0,1,.062,1.183c-.187.645-.861,1.033-1.121,1.652a2.367,2.367,0,0,0,.627,2.29,6.594,6.594,0,0,0,3.77,2.253,2.769,2.769,0,0,0,1.176.026,3.481,3.481,0,0,0,1.935-1.755c2.422-3.774,4.506-7.91,4.931-12.372a7.942,7.942,0,0,0-.125-2.729,9.16,9.16,0,0,0-.835-2,16.12,16.12,0,0,0-2.356-3.565,13.381,13.381,0,0,0-6.331-3.55,21.442,21.442,0,0,0-8.174-.641c-.733.084-1.436.205-2.158.253a21.718,21.718,0,0,1-2.719-.044l-5.393-.322a2.1,2.1,0,0,0,.366,1.956,3.511,3.511,0,0,1,.791,1.89,3.889,3.889,0,0,1-.9,1.832,1.8,1.8,0,0,0-.289,1.916,2.049,2.049,0,0,0,1.832.6l2.718-.029a2.6,2.6,0,0,1,1.381.238,2.111,2.111,0,0,1,.843,1.63,10.777,10.777,0,0,0,.212,1.887,1.524,1.524,0,0,0,1.326,1.176.989.989,0,0,1,.531.04.674.674,0,0,1,.256.513c.19,1.147-.161,3.264,1.037,3.9A4.219,4.219,0,0,0,670.3,258.531Z" transform="translate(-435.433 -166.18)"/><path class="f" d="M697.518,353.412a5.972,5.972,0,0,0-6.283,4.012c-1.465,4.173-3.909,11.7-3.3,14.677.861,4.217,1.876,11.248,1.876,11.248s4.451,2.565,2.2,5.151a14.591,14.591,0,0,0-2.891,6.25s-2.891,1.249-3.514,3.906-4.844,6.324-4.844,6.324l-6.324,6.327s10.464,10.625,12.574,11.167L693.5,414.9l7.653-10.152,6.639-6.961s1.561-3.664.78-10.625a50.847,50.847,0,0,0-3.829-13.589l.235-2.345S705.692,354.427,697.518,353.412Z" transform="translate(-447.167 -236.993)"/><path class="j" d="M699.224,353.413a5.972,5.972,0,0,0-6.276,4.012c-1.465,4.173-3.909,11.7-3.3,14.677.857,4.217,1.872,11.248,1.872,11.248s4.451,2.565,2.2,5.151a14.56,14.56,0,0,0-2.887,6.25s-2.891,1.249-3.517,3.906-4.84,6.324-4.84,6.324l-6.327,6.327s10.464,10.625,12.574,11.167l6.481-7.577,7.635-10.152,6.639-6.961s1.564-3.664.78-10.625a51.07,51.07,0,0,0-3.825-13.589l.234-2.345S707.4,354.428,699.224,353.413Z" transform="translate(-448.251 -236.994)"/><path class="f" d="M721.28,418.34s6.639,8.119,9.452,6.324S721.28,418.34,721.28,418.34Z" transform="translate(-476.846 -278.154)"/><path class="f" d="M728.1,401.28c.7.234,6.485,8.28,9.452,7.327S728.1,401.28,728.1,401.28Z" transform="translate(-481.167 -267.345)"/><path class="f" d="M732.58,439a4.348,4.348,0,0,0,5.155,3.982C742.5,442.356,732.58,439,732.58,439Z" transform="translate(-484.006 -291.245)"/><path class="f" d="M616.566,301.83l-2.576,5.741,3.217-3.264Z" transform="translate(-389.04 -191.247)"/><path class="u" d="M616.566,300.98l-2.576,5.741,3.217-3.264Z" transform="translate(-389.04 -190.709)"/><path class="x" d="M583.294,472.344l-1.92-.407-3.524-6.62.355-2.367Z" transform="translate(-366.141 -293.337)"/><path class="x" d="M671.286,487.65l-.421,2.195v0l-5,4.078-1.887-.4Z" transform="translate(-420.715 -308.988)"/><path class="f" d="M457.922,384.168c-.967.161-1.905.308-2.762.418-4.763.626-16.091-5-16.091-5s-13.823-11.559-17.806-22.492,4.763-12.574,4.763-12.574c3.3-1.876,10.467,3.356,11.482,4.217a6.521,6.521,0,0,1,1.8,4.451c-.081,1.407,2.345,3.2,2.345,3.2s4.14,7.185,5.155,7.965a4.076,4.076,0,0,1,1.561,2.814c.311,1.33,3.045,2.422,4.217,2.341s2.565.392,2.565,1.015c0,.5,1.147.751,2.088.832C457.511,375.364,457.786,380.611,457.922,384.168Z" transform="translate(-286.089 -231.126)"/><path class="f" d="M458.961,380.864c-.733.117-1.436.224-2.1.311-4.763.627-16.087-5-16.087-5s-13.823-11.559-17.806-22.492,4.763-12.574,4.763-12.574c3.3-1.876,10.464,3.356,11.479,4.217a6.541,6.541,0,0,1,1.8,4.451c-.077,1.407,2.341,3.2,2.341,3.2s4.14,7.185,5.155,7.965a4.093,4.093,0,0,1,1.564,2.814c.315,1.33,3.045,2.418,4.217,2.341s2.565.392,2.565,1.015c0,.366.652.612,1.378.733.029.425.055.876.088,1.345C458.562,372.8,458.811,377.391,458.961,380.864Z" transform="translate(-287.172 -228.966)"/><path class="f" d="M570.245,428.84l-.3,7.02h-.319l-.66-.366.081-6.049A10.624,10.624,0,0,1,570.245,428.84Z" transform="translate(-380.339 -284.807)"/><path class="n" d="M426.025,342.815s-8.745,1.641-4.763,12.574,17.806,22.5,17.806,22.5,11.325,5.62,16.091,5,12.024-2.264,12.962-2.03,7.265.234,7.265.234l.311-7.327-7.328-.392-3.748-.78s-1.33-1.1-2.11-.938-2.418-.938-2.418-.938a4.668,4.668,0,0,0-2.2-1.015c-.945,0-2.733-.234-2.733-.857s-1.407-1.1-2.565-1.015-3.924-1.015-4.246-2.359a4.077,4.077,0,0,0-1.561-2.81c-1.015-.78-5.155-7.969-5.155-7.969s-2.422-1.8-2.345-3.2a6.554,6.554,0,0,0-1.8-4.455C436.482,346.171,429.3,340.943,426.025,342.815Z" transform="translate(-286.089 -230.045)"/><path class="f" d="M492.89,412.15s-3.36,3.36-2.5,3.982Z" transform="translate(-330.458 -274.232)"/><path class="f" d="M501.377,419.4s-4.375,3.36-3.2,3.594S501.377,419.4,501.377,419.4Z" transform="translate(-335.354 -278.826)"/><path class="f" d="M487,433c.626.315,9.918,5.862,13.435,5.781Z" transform="translate(-328.4 -287.443)"/><path class="f" d="M463.742,317.96s-1.641,5.389-2.268,5.389c-.491,0-8.734-6.675-12.175-9.482l.15-.125a7.374,7.374,0,0,1,1.561-3.664C452.26,308.837,463.742,317.96,463.742,317.96Z" transform="translate(-304.513 -209.484)"/><path class="n" d="M462.883,316.25s-1.638,5.389-2.264,5.389c-.495,0-8.738-6.675-12.178-9.482l.15-.125a7.394,7.394,0,0,1,1.564-3.664C451.4,307.127,462.883,316.25,462.883,316.25Z" transform="translate(-303.968 -208.4)"/><g class="y" transform="translate(136.797 72.352)"><path d="M427.49,282.54h0c1.1,2.51,4.125,3.726,5.88,5.726C432.326,285.808,429.274,284.6,427.49,282.54Z" transform="translate(-427.49 -264.459)"/><path d="M449.734,294.658a2.633,2.633,0,0,1-2.4,1.227,7.013,7.013,0,0,1-2.411-.616,4.686,4.686,0,0,1,.623,1.326,7.657,7.657,0,0,0,2.726.733,2.607,2.607,0,0,0,2.4-1.227c.7-1.337-.029-2.48-.883-3.561A2.326,2.326,0,0,1,449.734,294.658Z" transform="translate(-438.534 -270.796)"/><path d="M467.264,238.689a12.571,12.571,0,0,0-.967-1.92,11.989,11.989,0,0,1-.4-1.568,4.858,4.858,0,0,0-1.125-2.011,4.649,4.649,0,0,1,.187.553,12.62,12.62,0,0,0,.41,1.575,12.56,12.56,0,0,1,.967,1.92,1.989,1.989,0,0,1-1.466,2.293c-1.356.3-2.9-.876-4.067-.121a2.927,2.927,0,0,0-.975,2.257q-.245,2.2-.5,4.371a5.241,5.241,0,0,1-.322,1.5,3.774,3.774,0,0,1-3.594,1.916,2.158,2.158,0,0,1-1.546-.513,10.227,10.227,0,0,0-.67-.85c-1.832-1.539-2.389,2.224-1.905,3.3a6.634,6.634,0,0,0,.894,1.345c-.4-1.209.161-4.69,1.949-3.2a9.448,9.448,0,0,1,.667.85,2.173,2.173,0,0,0,1.55.513,3.774,3.774,0,0,0,3.594-1.916,5.237,5.237,0,0,0,.322-1.506q.249-2.2.5-4.367a2.936,2.936,0,0,1,.971-2.257c1.169-.755,2.715.418,4.07.117A1.986,1.986,0,0,0,467.264,238.689Z" transform="translate(-442.467 -233.19)"/></g><path class="f" d="M677.993,267.34a2.833,2.833,0,0,1-1.176-.029,6.6,6.6,0,0,1-3.766-2.25,2.359,2.359,0,0,1-.627-2.294c.257-.619.931-1.008,1.1-1.652a2.455,2.455,0,0,0-.062-1.183l-.4-1.806c-.114-.513-.311-1.117-.821-1.238s-.934.3-1.334.612a4.173,4.173,0,0,1-4.03.663c-1.172-.637-.846-2.755-1.037-3.9a.685.685,0,0,0-.256-.513,1.044,1.044,0,0,0-.535-.04,1.534,1.534,0,0,1-1.326-1.176,10.4,10.4,0,0,1-.209-1.887,2.114,2.114,0,0,0-.846-1.63,2.634,2.634,0,0,0-1.381-.238l-2.718.029c-.671,0-1.465-.044-1.832-.6a1.825,1.825,0,0,1,.289-1.916,3.792,3.792,0,0,0,.9-1.832,3.446,3.446,0,0,0-.791-1.891,3.389,3.389,0,0,1-.462-1.048l-.78-.048a2.108,2.108,0,0,0,.366,1.956,3.5,3.5,0,0,1,.791,1.887,3.89,3.89,0,0,1-.9,1.832,1.794,1.794,0,0,0-.286,1.916,2.048,2.048,0,0,0,1.832.6l2.718-.033a2.631,2.631,0,0,1,1.381.242,2.1,2.1,0,0,1,.846,1.63,10.118,10.118,0,0,0,.212,1.887,1.516,1.516,0,0,0,1.326,1.172,1.073,1.073,0,0,1,.531.04.689.689,0,0,1,.256.517c.19,1.143-.161,3.264,1.037,3.9a4.157,4.157,0,0,0,4.03-.663c.4-.315.843-.733,1.337-.616s.707.733.817,1.238l.4,1.81a2.453,2.453,0,0,1,.059,1.183c-.183.641-.861,1.033-1.117,1.649a2.365,2.365,0,0,0,.626,2.293,6.6,6.6,0,0,0,3.792,2.25,2.831,2.831,0,0,0,1.176.029,2.762,2.762,0,0,0,1.524-1.158A2.037,2.037,0,0,1,677.993,267.34Z" transform="translate(-435.284 -166.085)"/><ellipse class="a" cx="8.855" cy="1.359" rx="8.855" ry="1.359" transform="translate(65.771 260.342)"/><ellipse class="a" cx="8.855" cy="1.359" rx="8.855" ry="1.359" transform="translate(374.962 225.001)"/><ellipse class="a" cx="25.646" cy="3.935" rx="25.646" ry="3.935" transform="translate(267.893 277.199)"/><ellipse class="a" cx="20.004" cy="3.07" rx="20.004" ry="3.07" transform="translate(346.44 261.393)"/><ellipse class="a" cx="33.923" cy="5.206" rx="33.923" ry="5.206" transform="translate(329.228 289.85)"/><ellipse class="a" cx="25.646" cy="3.935" rx="25.646" ry="3.935" transform="translate(11.079 295.701)"/><path class="w" d="M254.118,631.85s1,1.312-.462,3.3-2.675,3.664-2.2,4.887c0,0,2.2-3.664,4.03-3.73S256.1,634.063,254.118,631.85Z" transform="translate(-179.088 -413.44)"/><path class="f" d="M254.23,631.85a1.466,1.466,0,0,1,.205.41c1.759,2.066,2.693,3.99,1,4.03-1.572.044-3.459,2.858-3.909,3.568a1.365,1.365,0,0,0,.051.161s2.2-3.664,4.03-3.73S256.212,634.063,254.23,631.85Z" transform="translate(-179.2 -413.44)"/><path class="z" d="M263.595,635.9c0,.462-.055.835-.117.835s-.117-.366-.117-.835.066-.242.128-.242S263.595,635.435,263.595,635.9Z" transform="translate(-186.696 -415.816)"/><path class="z" d="M264.374,637.369c-.4.22-.758.366-.788.3s.271-.279.678-.5.246-.059.275,0S264.781,637.145,264.374,637.369Z" transform="translate(-186.839 -416.734)"/><path class="w" d="M240.546,631.85s-1,1.312.462,3.3,2.678,3.664,2.2,4.887c0,0-2.2-3.664-4.012-3.73S238.553,634.063,240.546,631.85Z" transform="translate(-170.814 -413.44)"/><path class="f" d="M240.532,631.85a1.616,1.616,0,0,0-.205.41c-1.759,2.066-2.693,3.99-1,4.03,1.572.044,3.459,2.858,3.913,3.568a1.4,1.4,0,0,1-.055.161s-2.2-3.664-4.012-3.73S238.539,634.063,240.532,631.85Z" transform="translate(-170.8 -413.44)"/><path class="z" d="M239.35,635.9c0,.462.051.835.114.835s.117-.366.117-.835-.066-.242-.128-.242S239.35,635.435,239.35,635.9Z" transform="translate(-171.483 -415.816)"/><path class="z" d="M237.174,637.369c.407.22.758.366.791.3s-.275-.279-.681-.5-.245-.059-.275,0S236.767,637.145,237.174,637.369Z" transform="translate(-169.948 -416.734)"/><ellipse class="a" cx="10.489" cy="1.608" rx="10.489" ry="1.608" transform="translate(61.892 233.41)"/><path class="aa" d="M247.727,648.292l-.051.41-.07.579-.029.242-.07.579-.033.242-.07.579-.8,6.595c-.07.586-1.03,1.044-2.2,1.044h-4.155c-1.158,0-2.118-.458-2.2-1.044l-.8-6.595-.07-.579-.029-.242-.073-.579-.029-.242-.07-.579-.051-.41c-.04-.333.48-.612,1.136-.612h8.533C247.247,647.68,247.767,647.958,247.727,648.292Z" transform="translate(-169.946 -423.47)"/><path class="ab" d="M193.658,614.76l-.07.579H183.03l-.07-.579Z" transform="translate(-115.928 -389.528)"/><path class="ab" d="M193.73,617l-.07.579H183.3L183.23,617Z" transform="translate(-116.099 -390.947)"/><path class="ab" d="M193.809,619.24l-.073.579H183.58l-.07-.579Z" transform="translate(-116.277 -392.366)"/><path class="w" d="M1082.462,618s-1.253,5.833,4.32,6.521l.344-.648S1082.806,619.81,1082.462,618Z" transform="translate(-705.624 -404.664)"/><path class="w" d="M1091.869,618.737l-1.3.275-.128.029s-3.459-2.806-3.415-9.071a15.468,15.468,0,0,0,1.652,2.612C1090.052,614.4,1091.609,616.814,1091.869,618.737Z" transform="translate(-708.594 -399.576)"/><path class="w" d="M1096.106,615.606a.813.813,0,0,1-.7.091c-3.327-.777-2.2-11.618-2.2-11.618.183.084.366,1.466,1.15,3.246C1095.7,610.451,1097.175,614.822,1096.106,615.606Z" transform="translate(-712.395 -395.844)"/><path class="w" d="M1111.7,618s.216,5.833-5.356,6.521l-.348-.659S1111.36,619.81,1111.7,618Z" transform="translate(-720.615 -404.664)"/><path class="w" d="M1107.053,610a10.787,10.787,0,0,1-4.448,9.071l-.132-.029-1.293-.275c.256-1.923,1.832-4.341,3.184-6.155A14.1,14.1,0,0,1,1107.053,610Z" transform="translate(-717.561 -399.595)"/><path class="w" d="M1101.085,615.048a2.023,2.023,0,0,1-.733.568h0a1.421,1.421,0,0,1-.275.092c-.817.191-1.1-.4-1.055-1.4.077-1.784,1.2-4.88,2.2-7.2a9,9,0,0,1,2.088-3.015S1103.258,612.528,1101.085,615.048Z" transform="translate(-716.191 -395.85)"/><path class="w" d="M1098.98,593.7s-3.715,13.189-.517,15.161S1099.8,594.865,1098.98,593.7Z" transform="translate(-715.016 -389.267)"/><path class="f" d="M1082.462,618s-1.253,5.833,4.32,6.521l.344-.648S1082.806,619.81,1082.462,618Z" transform="translate(-705.624 -404.664)"/><path class="f" d="M1091.869,618.737l-1.3.275-.128.029s-3.459-2.806-3.415-9.071a15.468,15.468,0,0,0,1.652,2.612C1090.052,614.4,1091.609,616.814,1091.869,618.737Z" transform="translate(-708.594 -399.576)"/><path class="f" d="M1096.106,615.606a.813.813,0,0,1-.7.091c-3.327-.777-2.2-11.618-2.2-11.618.183.084.366,1.466,1.15,3.246C1095.7,610.451,1097.175,614.822,1096.106,615.606Z" transform="translate(-712.395 -395.844)"/><path class="f" d="M1111.7,618s.216,5.833-5.356,6.521l-.348-.659S1111.36,619.81,1111.7,618Z" transform="translate(-720.615 -404.664)"/><path class="f" d="M1107.053,610a10.787,10.787,0,0,1-4.448,9.071l-.132-.029-1.293-.275c.256-1.923,1.832-4.341,3.184-6.155A14.1,14.1,0,0,1,1107.053,610Z" transform="translate(-717.561 -399.595)"/><path class="f" d="M1101.085,615.048a2.023,2.023,0,0,1-.733.568h0a1.421,1.421,0,0,1-.275.092c-.817.191-1.1-.4-1.055-1.4.077-1.784,1.2-4.88,2.2-7.2a9,9,0,0,1,2.088-3.015S1103.258,612.528,1101.085,615.048Z" transform="translate(-716.191 -395.85)"/><path class="f" d="M1098.98,593.7s-3.715,13.189-.517,15.161S1099.8,594.865,1098.98,593.7Z" transform="translate(-715.016 -389.267)"/><path class="w" d="M1082.615,618s-.733,5.833,4.836,6.521l.344-.648S1082.959,619.81,1082.615,618Z" transform="translate(-705.777 -404.664)"/><path class="w" d="M1092.367,618.756l-1.3.275-.128.029s-3.975-2.806-3.942-9.06c0,0,1.018,1.1,2.169,2.612C1090.55,614.415,1092.107,616.833,1092.367,618.756Z" transform="translate(-708.576 -399.595)"/><path class="f" d="M1096.137,623.255l-1.3.275c-1.227-1.077-1.715-3.891-1.891-6.43C1094.32,618.914,1095.877,621.332,1096.137,623.255Z" transform="translate(-712.346 -404.094)"/><path class="w" d="M1096.863,615.606a.821.821,0,0,1-.7.091c-3.326-.777-2.718-11.618-2.718-11.618a15.047,15.047,0,0,1,1.667,3.246C1096.456,610.451,1097.929,614.822,1096.863,615.606Z" transform="translate(-712.632 -395.844)"/><path class="w" d="M1112.611,618s.733,5.833-4.836,6.521l-.344-.648S1112.266,619.81,1112.611,618Z" transform="translate(-721.521 -404.664)"/><path class="w" d="M1107.946,610c.044,6.265-3.931,9.071-3.931,9.071l-.128-.029-1.3-.275c.256-1.923,1.832-4.341,3.188-6.155C1106.928,611.1,1107.946,610,1107.946,610Z" transform="translate(-718.454 -399.595)"/><path class="f" d="M1105.777,617.1c-.168,2.367-.6,4.972-1.652,6.188a1.85,1.85,0,0,1-.238.242l-1.3-.275C1102.846,621.332,1104.407,618.914,1105.777,617.1Z" transform="translate(-718.454 -404.094)"/><path class="w" d="M1102.5,615.048a1.98,1.98,0,0,1-.733.568h0a1.451,1.451,0,0,1-.271.092c-.821.191-1.1-.4-1.059-1.4.081-1.784,1.2-4.88,2.2-7.2a14.078,14.078,0,0,1,1.572-3.015S1104.669,612.528,1102.5,615.048Z" transform="translate(-717.085 -395.85)"/><path class="f" d="M1099.481,621.22a.879.879,0,0,1-.528-.169c-1.564-.975-1.6-4.631-1.224-8.112C1099.074,616.065,1100.547,620.436,1099.481,621.22Z" transform="translate(-715.249 -401.458)"/><path class="f" d="M1102.5,620.263c-.18.392-.422.6-.733.568h0a.984.984,0,0,1-.443-.169,2.367,2.367,0,0,1-.887-1.143c.081-1.784,1.2-4.88,2.2-7.2C1103,615.533,1103.118,618.94,1102.5,620.263Z" transform="translate(-717.092 -401.065)"/><path class="w" d="M1099.664,593.7s-3.195,13.189,0,15.161S1100.485,594.865,1099.664,593.7Z" transform="translate(-715.701 -389.267)"/><path class="ac" d="M1041.743,597.61h-13.3v2.2h2.03l.051.26.813,4.276h7.734l.813-4.276.047-.26h1.814Z" transform="translate(-651.646 -378.661)"/><path class="f" d="M1041.743,597.61h-13.3v2.2h2.03l.051.26.813,4.276h7.734l.813-4.276.047-.26h1.814Z" transform="translate(-651.646 -378.661)"/><path class="ac" d="M1044.728,601.14l-.223,1.169-.813,4.276h-7.734l-.813-4.276-.224-1.169Z" transform="translate(-655.752 -380.898)"/><path class="f" d="M1044.728,601.14l-.223,1.169h-9.361l-.224-1.169Z" transform="translate(-655.752 -380.898)"/><rect class="ac" width="13.303" height="2.202" transform="translate(377.31 218.949)"/><path class="w" d="M153.963,731.445a6.392,6.392,0,0,0-.835,1.575c-.051.136-.1.293-.154.443a1.59,1.59,0,0,0-.289-.1,4.029,4.029,0,0,0-1.308-.11c0-.172.022-.366.026-.539.055-1.931-.172-4.62-2.015-3.481-1.766,1.1-.506,2.931.634,4.1.1.1.2.2.293.289-1.04.733-1.238,2.466-1.411,4.265s-1.7,3.766-2.715,4.884c-.1.114-.194.216-.286.311a3.719,3.719,0,0,0-2.949-.758c-.04-.157-.088-.322-.136-.495-.821-2.964-2.524-8.1-4.7-9.222l.286-.366c.923-1.205,1.964-3,.429-3.459s-1.674,1.553-1.59,3.063q.022.286.044.539a2.247,2.247,0,0,0-1.6.784l-.238-.282c-1.246-1.466-3.528-3.8-4.221-2.037-.645,1.641,1.367,3.774,2.781,5.008l.088.077c-.949,3.851,3.195,6.99,5.426,8.364l.289.176c-3.078,3.627-4.979,10.427-4.979,10.427l8.617,1.539s5.715-4.931,4.983-9.562h.059c5.712-1.143,7.009-7.232,6.118-10.848l.1-.04a6.467,6.467,0,0,0,2.645-2C158.953,731.775,155.611,729.269,153.963,731.445Z" transform="translate(-102.894 -474.818)"/><path class="f" d="M153.963,731.445a6.392,6.392,0,0,0-.835,1.575c-.051.136-.1.293-.154.443a1.59,1.59,0,0,0-.289-.1,4.029,4.029,0,0,0-1.308-.11c0-.172.022-.366.026-.539.055-1.931-.172-4.62-2.015-3.481-1.766,1.1-.506,2.931.634,4.1.1.1.2.2.293.289-1.04.733-1.238,2.466-1.411,4.265s-1.7,3.766-2.715,4.884c-.1.114-.194.216-.286.311a3.719,3.719,0,0,0-2.949-.758c-.04-.157-.088-.322-.136-.495-.821-2.964-2.524-8.1-4.7-9.222l.286-.366c.923-1.205,1.964-3,.429-3.459s-1.674,1.553-1.59,3.063q.022.286.044.539a2.247,2.247,0,0,0-1.6.784l-.238-.282c-1.246-1.466-3.528-3.8-4.221-2.037-.645,1.641,1.367,3.774,2.781,5.008l.088.077c-.949,3.851,3.195,6.99,5.426,8.364l.289.176c-3.078,3.627-4.979,10.427-4.979,10.427l8.617,1.539s5.715-4.931,4.983-9.562h.059c5.712-1.143,7.009-7.232,6.118-10.848l.1-.04a6.467,6.467,0,0,0,2.645-2C158.953,731.775,155.611,729.269,153.963,731.445Z" transform="translate(-102.894 -474.818)"/><path class="w" d="M137.722,736.552l-1.008,2.931s-.561-.4-1.268-1.019c-1.414-1.235-3.426-3.367-2.781-5.008.692-1.762,2.975.564,4.221,2.037C137.388,736.079,137.722,736.552,137.722,736.552Z" transform="translate(-103.806 -477.419)"/><path class="w" d="M150.44,732.257a13.989,13.989,0,0,1-.982,1.158,15.471,15.471,0,0,1-.18-1.553c-.084-1.51.077-3.514,1.59-3.063S151.364,731.052,150.44,732.257Z" transform="translate(-114.4 -474.828)"/><path class="w" d="M183,733.128c-.029.971-.125,1.748-.125,1.748a12.767,12.767,0,0,1-1.257-1.125c-1.139-1.183-2.4-3.008-.634-4.1C182.807,728.5,183.034,731.2,183,733.128Z" transform="translate(-133.944 -475.234)"/><path class="w" d="M196.039,737.252a6.467,6.467,0,0,1-2.645,2,7.924,7.924,0,0,1-.887.322l-1.187-1.667a11.786,11.786,0,0,1,.491-1.619,6.389,6.389,0,0,1,.835-1.576C194.288,732.537,197.636,735.043,196.039,737.252Z" transform="translate(-141.05 -478.086)"/><path class="f" d="M141.91,740.11c.5.586.835,1.041.835,1.041l-1.008,2.931s-.561-.4-1.268-1.019a5.752,5.752,0,0,1,1.136-2.59C141.7,740.352,141.811,740.227,141.91,740.11Z" transform="translate(-108.83 -482.036)"/><path class="f" d="M150.471,737.666a13.97,13.97,0,0,1-.982,1.158,15.464,15.464,0,0,1-.18-1.553A2.026,2.026,0,0,1,150.471,737.666Z" transform="translate(-114.431 -480.237)"/><path class="w" d="M149.721,750.289l-2.506,1.1s-.546-.264-1.334-.755c-2.634-1.619-7.928-5.7-4.4-10.5s6.51,3.814,7.694,8.031C149.534,749.443,149.721,750.289,149.721,750.289Z" transform="translate(-108.727 -481.15)"/><path class="f" d="M184.18,740.243a2.059,2.059,0,0,1,1.381-.623c-.029.971-.125,1.748-.125,1.748A12.788,12.788,0,0,1,184.18,740.243Z" transform="translate(-136.526 -481.726)"/><path class="f" d="M193.414,743.424a7.912,7.912,0,0,1-.887.323l-1.187-1.667a11.788,11.788,0,0,1,.491-1.619A4.323,4.323,0,0,1,193.414,743.424Z" transform="translate(-141.062 -482.258)"/><path class="w" d="M171.286,754.674c-.136.029-.278.055-.421.077-8.4,1.275-2.77-3.257-2.77-3.257s.366-.366.89-.92c1.015-1.117,2.539-3.074,2.715-4.884.264-2.722.568-5.276,3.781-4.528C178.636,741.9,179.24,753.08,171.286,754.674Z" transform="translate(-125.163 -482.619)"/><rect class="ad" width="16.051" height="4.221" transform="translate(29.914 292.971)"/><rect class="ad" width="20.971" height="14.728" transform="translate(27.364 279.254)"/><rect class="f" width="16.051" height="4.221" transform="translate(29.914 292.971)"/><rect class="f" width="20.971" height="14.728" transform="translate(27.364 279.254)"/><rect class="ad" width="16.051" height="4.221" transform="translate(30.97 292.971)"/><path class="f" d="M158.817,764.51c.366,1.26.542,2.125.542,2.125l-2.506,1.1s-.546-.264-1.334-.755A6.433,6.433,0,0,1,158.817,764.51Z" transform="translate(-118.366 -497.496)"/><path class="f" d="M171.286,771.18c-.136.029-.278.055-.421.077-8.4,1.275-2.77-3.257-2.77-3.257s.366-.366.89-.92A5.563,5.563,0,0,1,171.286,771.18Z" transform="translate(-125.163 -499.125)"/><path class="w" d="M142.72,778.323s4.7-16.853,11.3-11.654-2.686,13.19-2.686,13.19Z" transform="translate(-110.256 -498.233)"/><circle class="f" cx="0.528" cy="0.528" r="0.528" transform="translate(34.311 261.093)"/><circle class="f" cx="0.528" cy="0.528" r="0.528" transform="translate(34.267 263.555)"/><circle class="f" cx="0.528" cy="0.528" r="0.528" transform="translate(49.57 261.577)"/><circle class="f" cx="0.528" cy="0.528" r="0.528" transform="translate(37.26 274.198)"/><circle class="f" cx="0.528" cy="0.528" r="0.528" transform="translate(48.471 265.665)"/><circle class="f" cx="0.528" cy="0.528" r="0.528" transform="translate(43.02 271.121)"/><circle class="f" cx="0.528" cy="0.528" r="0.528" transform="translate(36.113 262.148)"/><circle class="f" cx="0.528" cy="0.528" r="0.528" transform="translate(48.12 263.159)"/><circle class="f" cx="0.528" cy="0.528" r="0.528" transform="translate(46.317 267.248)"/><circle class="f" cx="0.528" cy="0.528" r="0.528" transform="translate(40.777 273.802)"/><circle class="f" cx="0.528" cy="0.528" r="0.528" transform="translate(39.634 271.208)"/><circle class="f" cx="0.528" cy="0.528" r="0.528" transform="translate(36.905 265.358)"/><rect class="f" width="16.051" height="1.542" transform="translate(30.97 292.971)"/><rect class="ad" width="20.971" height="14.728" transform="translate(28.42 279.254)"/><circle class="f" cx="0.528" cy="0.528" r="0.528" transform="translate(41.481 276.177)"/><circle class="f" cx="0.528" cy="0.528" r="0.528" transform="translate(38.315 276.836)"/><circle class="a" cx="3.832" cy="3.832" r="3.832" transform="translate(14.486 15.219)"/><circle class="a" cx="5.129" cy="5.129" r="5.129" transform="translate(381.238 134.492)"/><circle class="a" cx="3.744" cy="3.744" r="3.744" transform="translate(392.511 124.886)"/><circle class="a" cx="5.129" cy="5.129" r="5.129" transform="translate(19.784)"/><circle class="a" cx="5.129" cy="5.129" r="5.129" transform="translate(0 23.448)"/></svg>