<svg xmlns="http://www.w3.org/2000/svg" width="300" height="184.304" viewBox="0 0 300 184.304"><defs><style>.a{fill:#f6b9ad;}.b{opacity:0.1;}.c{fill:none;stroke:#3f3d56;stroke-miterlimit:10;}.d{fill:#ef6d18;}.e{fill:#fad3b9;}.f{fill:#f2f2f2;}.g{fill:#46455b;}.h{fill:#a8a8a8;}.i{opacity:0.2;}.j{fill:#fff;}.k{fill:#57b894;}</style></defs><g transform="translate(0 -68.042)"><path class="a" d="M514.165,495.239H354.03a19.8,19.8,0,0,1-19.8-19.8V402.073a7.844,7.844,0,0,1,2.448-5.693l84.856-80.436a18.263,18.263,0,0,1,25.128,0l80.905,76.692a20.5,20.5,0,0,1,6.4,14.88v67.923A19.8,19.8,0,0,1,514.165,495.239Z" transform="translate(-233.965 -242.894)"/><path class="b" d="M240.954,387.992H439.025V468a11.956,11.956,0,0,1-11.956,11.956H252.91A11.956,11.956,0,0,1,240.954,468Z" transform="translate(-140.689 -227.607)"/><path class="c" d="M333.73,521.351" transform="translate(-233.673 -365.752)"/><rect class="d" width="147.305" height="147.305" rx="26.181" transform="translate(126.272 97.343)"/><path class="b" d="M450.759,395.942V476.9h-147.3V395.942l73.652,35.6Z" transform="translate(-177.182 -232.249)"/><path class="e" d="M433.6,572.812,339.225,527.2a3.829,3.829,0,0,0-5.5,3.448v78.479a11.956,11.956,0,0,0,11.956,11.956H521.509a11.956,11.956,0,0,0,11.956-11.956V531.99a4.672,4.672,0,0,0-6.706-4.207Z" transform="translate(-233.673 -368.944)"/><rect class="f" width="41.195" height="5.826" transform="translate(138.963 110.866)"/><rect class="f" width="122.338" height="3.329" transform="translate(135.634 132.088)"/><rect class="f" width="122.338" height="3.329" transform="translate(135.634 143.323)"/><rect class="f" width="122.338" height="3.329" transform="translate(135.634 154.559)"/><path class="g" d="M93.275,630.212c0,24.534,15.392,44.387,34.412,44.387" transform="translate(-93.275 -429.314)"/><path class="d" d="M175.975,673.9c0-24.81,17.176-44.886,38.4-44.886" transform="translate(-141.562 -428.615)"/><path class="d" d="M123.239,635.557c0,23.3,9.815,42.163,21.944,42.163" transform="translate(-110.771 -432.435)"/><path class="g" d="M175.975,656.4c0-31.7,19.853-57.354,44.387-57.354" transform="translate(-141.562 -411.119)"/><path class="h" d="M158.577,733.934s4.88-.15,6.351-1.2,7.507-2.3,7.872-.618,7.334,8.354,1.824,8.4-12.8-.858-14.27-1.752S158.577,733.934,158.577,733.934Z" transform="translate(-131.404 -488.336)"/><path class="i" d="M174.723,743.623c-5.51.045-12.8-.858-14.27-1.752-1.118-.681-1.563-3.124-1.712-4.252l-.163.006s.309,3.936,1.777,4.83,8.76,1.8,14.27,1.753c1.59-.013,2.14-.579,2.11-1.417C176.513,743.3,175.906,743.614,174.723,743.623Z" transform="translate(-131.404 -492.028)"/><ellipse class="j" cx="17.061" cy="17.092" rx="17.061" ry="17.092" transform="translate(115.245 82.571)"/><path class="k" d="M382.619,338.851a20.39,20.39,0,1,0,20.39,20.39A20.39,20.39,0,0,0,382.619,338.851Zm-4.186,31.261-10.45-10.45,2.931-2.931,7.529,7.529,15.89-15.89,2.931,2.931Z" transform="translate(-250.314 -259.193)"/></g></svg>