<svg xmlns="http://www.w3.org/2000/svg" xmlns:xlink="http://www.w3.org/1999/xlink" width="600" height="433.651" viewBox="0 0 600 433.651"><defs><style>.a,.f,.h{fill:#ef6d18;}.a,.c,.g,.l{opacity:0.1;}.b{fill:#d0d2d5;}.d,.g{fill:#444053;}.e{fill:#fff;}.h{opacity:0.3;}.i{fill:#454b69;}.j{fill:url(#a);}.k{fill:#2f2e41;}.m{fill:#a1616a;}.n{fill:#3f3d56;}</style><linearGradient id="a" x1="0.5" y1="1" x2="0.5" gradientUnits="objectBoundingBox"><stop offset="0" stop-color="gray" stop-opacity="0.251"/><stop offset="0.54" stop-color="gray" stop-opacity="0.122"/><stop offset="1" stop-color="gray" stop-opacity="0.102"/></linearGradient></defs><g transform="translate(-0.001 -35.922)"><path class="a" d="M383.615,127.439c-38.465-1.365-75.1-14.087-110.084-28s-69.639-29.342-107.18-36.718c-24.149-4.742-51.766-5.411-71.221,7.848C76.4,83.309,70.353,105.366,67.1,125.788c-2.448,15.4-3.887,31.567,2.814,45.968,4.657,10,12.924,18.4,18.643,27.972,19.885,33.32,5.841,74.407-15.728,106.941-10.089,15.261-21.84,29.82-29.64,46.063s-11.411,34.859-4.588,51.431c6.77,16.429,22.891,28.764,40.355,37.44,35.475,17.629,77.28,22.673,118.044,25.53,90.236,6.324,180.955,3.584,271.43.844,33.484-1.02,67.111-2.044,100.054-7.349,18.287-2.947,37.169-7.62,50.444-18.908,16.859-14.337,21.038-38.587,9.738-56.55-18.93-30.123-71.322-37.6-84.565-69.947-7.29-17.8.2-37.626,10.79-54.161,22.726-35.412,60.819-66.48,62.826-106.962,1.38-27.8-16.933-55.647-45.245-68.8-29.682-13.806-70.834-12.053-92.732,10.768C457.2,119.607,417.577,128.65,383.615,127.439Z" transform="translate(-35 -23.69)"/><ellipse class="a" cx="49.143" cy="7.37" rx="49.143" ry="7.37" transform="translate(311.308 454.833)"/><path class="b" d="M560.9,775.118l-94.617-1.211.281-2.427,4.572-40.031h83.094l6.112,40.031.467,3.032Z" transform="translate(-218.691 -326.211)"/><path class="c" d="M560.806,809.872H513.591l-47.311-.605.281-2.427h93.778Z" transform="translate(-218.691 -361.57)"/><rect class="b" width="125.552" height="3.032" transform="translate(231.819 445.875)"/><path class="d" d="M610.039,295.328a7.9,7.9,0,0,0-7.859-7.938H251.559a7.9,7.9,0,0,0-7.859,7.938V507.861H610.039Z" transform="translate(-132.882 -130.521)"/><path class="b" d="M243.7,698.6v24.893a7.859,7.859,0,0,0,7.859,7.859H602.18a7.853,7.853,0,0,0,7.859-7.859V698.6Z" transform="translate(-132.883 -323.383)"/><rect class="e" width="337.83" height="191.055" transform="translate(125.982 170.213)"/><path class="f" d="M584.92,728.092a8.194,8.194,0,0,0,6.442-3.129h0a8.1,8.1,0,0,0,.637-.94l-4.471-.743,4.859.037a8.2,8.2,0,0,0,.154-6.489l-6.515,3.382,6.011-4.418a8.188,8.188,0,1,0-13.535,9.165h0a8.193,8.193,0,0,0,6.42,3.133Z" transform="translate(-289.112 -329.565)"/><path class="c" d="M572.51,736.59,610.258,774.5l-5.793-37.907Z" transform="translate(-268.514 -328.622)"/><rect class="g" width="338.197" height="11.161" transform="translate(125.717 170.234)"/><rect class="f" width="9.706" height="6.791" rx="0.78" transform="translate(127.655 172.178)"/><rect class="h" width="101.896" height="6.791" rx="0.58" transform="translate(243.14 172.178)"/><path class="d" d="M675.672,320.928h-.25l-.09-.074a2.092,2.092,0,0,0,.483-1.322,2.012,2.012,0,1,0-2,2.023,2.124,2.124,0,0,0,1.317-.483l.09.074v.25l1.556,1.556.462-.467Zm-1.858,0a1.4,1.4,0,1,1,1.4-1.4,1.386,1.386,0,0,1-1.4,1.4Z" transform="translate(-333.662 -144.657)"/><circle class="f" cx="3.398" cy="3.398" r="3.398" transform="translate(455.662 172.172)"/><path class="c" d="M590.743,413.74H435.9c-5.363,0-9.712,4.057-9.712,9.059v85.234c0,5,4.349,9.059,9.712,9.059H590.743c5.363,0,9.712-4.057,9.712-9.059V422.8C600.455,417.8,596.106,413.74,590.743,413.74Z" transform="translate(-218.473 -189.781)"/><rect class="i" width="162.525" height="103.351" rx="18.67" transform="translate(213.638 219.106)"/><rect class="h" width="25.838" height="8.767" rx="4.383" transform="translate(230.709 277.239)"/><rect class="h" width="25.838" height="8.767" rx="4.383" transform="translate(265.314 277.239)"/><rect class="h" width="22.609" height="6.457" rx="3.228" transform="translate(279.613 295.234)"/><rect class="h" width="25.838" height="8.767" rx="4.383" transform="translate(299.918 277.239)"/><rect class="h" width="25.838" height="8.767" rx="4.383" transform="translate(334.522 277.239)"/><rect class="f" width="17.533" height="17.533" rx="2.95" transform="translate(233.014 256.477)"/><path class="i" d="M490.883,492.033H485.35V486.5h5.533Zm-5.31-.228h5.076v-5.076h-5.076Z" transform="translate(-246.219 -223.906)"/><rect class="i" width="0.228" height="6.228" transform="translate(241.78 256.477)"/><rect class="i" width="0.228" height="6" transform="translate(241.78 268.01)"/><rect class="i" width="6.228" height="0.228" transform="translate(233.014 265.127)"/><rect class="i" width="6" height="0.228" transform="translate(244.552 265.127)"/><path class="i" d="M444.979,461.384l-1.811-1.8H438.83v-.234h4.434l1.88,1.869Z" transform="translate(-205.816 -198.593)"/><path class="i" d="M460.564,461.384l-.154-.17,2.108-1.864h3.966v.234h-3.876Z" transform="translate(-215.938 -198.593)"/><path class="i" d="M443.269,475.19H438.83v-.234h4.333l1.811-2.087.175.154Z" transform="translate(-205.816 -204.934)"/><path class="i" d="M466.48,475.186h-3.972l-2.108-2.161.165-.165,2.044,2.092h3.871Z" transform="translate(-215.933 -204.929)"/><rect class="f" width="49.138" height="8.767" rx="4.1" transform="translate(230.592 227.066)"/><path class="j" d="M680.823,584.007c-.032-.913-.143-1.827-.255-2.735-.409-3.409-.828-6.818-1.492-10.179a10.8,10.8,0,0,0-.531-1.922c-.239-.589-.568-1.131-.818-1.715a.293.293,0,0,0,0-.064c.308-.149.611-.3.908-.457a4.551,4.551,0,0,0,.616-.377,1.741,1.741,0,0,0,.483-.531c.531-.935-.064-2.124-.334-3.186h0c-.287-1.142-.223-2.512-1.062-3.276-2.995-2.655-1.508-8.071-3.005-11.873-.266-.664-.568-1.317-.8-2-.175-.531-.3-1.062-.425-1.593q-1.593-6.637-3.356-13.216c-1.237-4.545-1.1-9.282-2.655-13.721a14.761,14.761,0,0,0-1.142-2.655,7.127,7.127,0,0,0-2.06-2.225,20.149,20.149,0,0,0-7.195-3.462,39.1,39.1,0,0,0-8.23-.467,8.719,8.719,0,0,0-3.844-3l-.048-.138a9.508,9.508,0,0,1-.5-1.662,11.345,11.345,0,0,1-.133-1.7c0-.611-.027-1.227-.042-1.837l.149-.143a10.283,10.283,0,0,0,.977-1.2,8.41,8.41,0,0,0,.743-1.269,11.777,11.777,0,0,0,.605-1.556,17.521,17.521,0,0,0,.653-3.3c.143-1.312.186-2.655.223-3.966v-1.694a7.153,7.153,0,0,0-.988-3.866,8,8,0,0,0-4.195-2.7c-3.186-1.1-6.685-1.832-9.834-.648-2.5.945-4.5,3.005-6.967,4.051h0a3.046,3.046,0,0,1,.154.292.318.318,0,0,1,0,.042c.042.1.08.186.112.281h0a3.494,3.494,0,0,1,.175.664h0a3.928,3.928,0,0,1,0,1.3,4.429,4.429,0,0,1-2.379.35,7.563,7.563,0,0,0,1.5,2.719c.218.276.446.531.664.823l.335.414a8.611,8.611,0,0,1,1.375,2.225,4.33,4.33,0,0,1,.26.993c.1.674.074,1.45.165,2.124a3.226,3.226,0,0,0,.218.844,8.894,8.894,0,0,0,4.715,6.621,19.543,19.543,0,0,1,0,6.34,1.637,1.637,0,0,1-.069.35,31.133,31.133,0,0,1-4.609,5.167,16.778,16.778,0,0,1-2.586,1.667,7.1,7.1,0,0,1-1.7.706c-.669.154-1.37.133-2.034.3a5.31,5.31,0,0,0-3.021,2.459,17.769,17.769,0,0,1-1.115,1.795c-.372.462-.839.839-1.232,1.28-1.423,1.593-1.811,3.9-2.124,6.053a27.716,27.716,0,0,1-3.627,3.351,5.309,5.309,0,0,1-1.349.781,4.2,4.2,0,0,1-3.717-.924c-1.089-.807-1.938-1.869-2.989-2.7l-.276.409a2.2,2.2,0,0,1-.218-.25,5.309,5.309,0,0,1-.876-2.028c-.382-1.959.34-4.057-.223-5.963-.207-.69-.706-1.4-1.4-1.386s-1.12.706-1.715,1.03c-.956.531-2.124.048-3.069-.478s-2.023-1.115-3.058-.8a2.172,2.172,0,0,0,.791,1.805,4.816,4.816,0,0,1,1.285,1.556,7.027,7.027,0,0,1,.175,2.012,7.972,7.972,0,0,0,1.986,4.094q1.72,2.2,3.6,4.28h0a1.327,1.327,0,0,1-.669.579,1.407,1.407,0,0,0,0,.77,3.125,3.125,0,0,0,.2.5c.122.25.271.494.4.722l1.864,3.276.3.531c.127.223.255.435.388.653a12.015,12.015,0,0,0,1.556,2.124,6.371,6.371,0,0,0,.977.839,5.072,5.072,0,0,0,.727.435,4.25,4.25,0,0,0,1.126.388,3.51,3.51,0,0,0,.584.074,3.922,3.922,0,0,0,.611,0,8.143,8.143,0,0,0,1.789-.462c3.552-1.248,6.813-3.239,10.19-4.933a5.668,5.668,0,0,1,1.481-.573,2.432,2.432,0,0,1,.531-.043,1.952,1.952,0,0,1,.531.09,1.916,1.916,0,0,1,.478.239,1.375,1.375,0,0,1,.579.86c.1.531.2,1.025.292,1.535s.2,1.019.308,1.529c.212,1.014.441,2.028.706,3.032.143.531.281,1.094.419,1.646.34,1.349.674,2.708.982,4.067.1.425.186.855.271,1.28a19.645,19.645,0,0,1,.34,2.289.2.2,0,0,1,0,.053c.053.669.058,1.333.064,2v2.1l.053,6.191a5.1,5.1,0,0,1-.855,2.251c-.074.165-.143.335-.2.5h0a5.7,5.7,0,0,0-.175.658,1.5,1.5,0,0,1-.043.212,1.03,1.03,0,0,1-.032.244c-.032.08,0,.159-.026.234a.69.69,0,0,0,0,.234v.945c0,.064.037.207.053.313l.032.159c.037.154.074.308.127.462.106.319.239.632.377.94s.276.621.393.94a6.331,6.331,0,0,1,.191.616,1.372,1.372,0,0,1,.032.143c.042.165.08.329.112.5v.117c.032.181.058.366.08.531a.256.256,0,0,1,0,.064c0,.207.042.414.053.621h0a20.455,20.455,0,0,1,0,2.283l-.064,3.781v.117h0a.665.665,0,0,0,.074.34.414.414,0,0,0,.356.191,1.35,1.35,0,0,0,.738-.287l1.689-1.227h.106a16.477,16.477,0,0,0-2.607,7.152,22.83,22.83,0,0,0,.324,5.06c1.556,11.151,5.219,22.4,4.45,33.659-.3,4.434,1.534,8.756,1.524,13.2,0,1.726-.292,3.435-.366,5.156-.324,7.391,3.446,14.868,1.912,22.089.531,1.795,2.543,2.75,3.112,4.535.478,1.513-.212,3.122-.77,4.6a9.384,9.384,0,0,0-.462,1.593,12.865,12.865,0,0,0-4.29.462,6.388,6.388,0,0,0-.834.34,2.3,2.3,0,0,0-.414,3.064,25.081,25.081,0,0,0,4.959,4.434l2.161,1.062a12.966,12.966,0,0,0,3.717,1.4,12.715,12.715,0,0,0,3.3-.064,3.248,3.248,0,0,0,2.326-.919c.77-.977.377-2.565-.149-3.977a1.418,1.418,0,0,0,.435-.589,4.713,4.713,0,0,0,.143-1.131,8.493,8.493,0,0,1,.754-2.124,17.228,17.228,0,0,0,.8-6.945,80.554,80.554,0,0,0-.786-11.432c-.265-1.593-.627-3.186-.935-4.779a79.08,79.08,0,0,1-1.45-17.523,14.022,14.022,0,0,0-.589-4.216,7.57,7.57,0,0,1-.138-2.405l.637-9.722a39.027,39.027,0,0,0,.09-5.947c-.09-1.062-.266-2.124-.372-3.186a48.469,48.469,0,0,1-.1-6.085c.058-2.182.159-4.524,1.407-6.276a.977.977,0,0,1,.595-.462c.255-.037.329.308.234.531.133.4.271.8.409,1.205.042.117.08.228.122.34.069.207.143.414.218.621s.106.287.154.43l.207.531c.058.159.122.313.181.467s.133.335.2.5.138.329.212.494.127.3.2.457l.255.531c.064.133.127.271.2.4s.207.388.313.579c.058.112.117.223.18.329.17.3.345.584.531.871h0c.361.531.749,1.062,1.062,1.63a5.4,5.4,0,0,1,.3.579,14.294,14.294,0,0,1,.7,2.262c.186.7.4,1.386.642,2.06s.531,1.349.791,2.007c.143.329.292.658.441.982.446.982.929,1.949,1.418,2.9a2.7,2.7,0,0,1,.2.531,2.47,2.47,0,0,1,.058.271,2.425,2.425,0,0,1,0,.531,2.239,2.239,0,0,1-.042.329,2.481,2.481,0,0,1-.143.478c-.653,1.492-.127,2.963.159,4.428a28.013,28.013,0,0,1,.361,4.673c0,.531,0,1.062.048,1.556,0,.648,0,1.29.037,1.938s0,1.391.037,2.087a18.169,18.169,0,0,1-.085,2.087,4.72,4.72,0,0,1-.1.722c-.117.717-.281,1.428-.425,2.124a42.243,42.243,0,0,0-.733,8.5q0,1.715.112,3.435c.064,1.152.154,2.3.255,3.451.053.632.117,1.264.181,1.9.106,1.094.223,2.188.34,3.281s.244,2.3.356,3.441.212,2.283.292,3.42a2.862,2.862,0,0,1-.34,1.625,3.647,3.647,0,0,0-.266.616,3.308,3.308,0,0,0-.117.451,4.775,4.775,0,0,0-.064.531,6.043,6.043,0,0,0,.064,1.115q.043.276.1.531c.08.366.175.733.271,1.094a11.008,11.008,0,0,0,1.062,2.867,4.246,4.246,0,0,0,.35.531c.037.053.08.1.122.154a3.82,3.82,0,0,1,.3.4,1.3,1.3,0,0,1,.112.207,1.63,1.63,0,0,1,.064.919c-.058.319-.17.637-.255.94h0l.276.037c-.388,1.227-.568,2.485.085,3.308a3.221,3.221,0,0,0,2.326.919,12.478,12.478,0,0,0,3.3.069,12.968,12.968,0,0,0,3.717-1.4L672,685.776a24.273,24.273,0,0,0,4.954-4.439,2.3,2.3,0,0,0-.409-3.058,5.967,5.967,0,0,0-.834-.345,12.2,12.2,0,0,0-3.945-.457c-.074-.531-.117-1.11-.138-1.657a45.765,45.765,0,0,1,.117-6.1c.122-1.439.308-2.873.292-4.312a53.553,53.553,0,0,0-.605-5.735c-.207-1.912-.228-3.781-.26-5.671-.048-2.782.77-5.432,1.126-8.183l.621-4.837a5.881,5.881,0,0,0,.042-1.779c-.1-.531-.34-1.062-.441-1.593-.218-1.205.329-2.4.5-3.616a15.283,15.283,0,0,0-.3-4.216,54.831,54.831,0,0,1-.366-6.669c-.191-13.7-.579-27.707-5.209-40.525-.186-.531-.388-1.062-.595-1.556a2.772,2.772,0,0,0,.276-.09,1.861,1.861,0,0,0,.409-.212,1.11,1.11,0,0,0,.159-.117,1.228,1.228,0,0,0,.313-.531,2,2,0,0,0,.1-.6,4.275,4.275,0,0,0-.154-1.062l-.064-.218c-.106-.361-.223-.717-.345-1.062h0c-.117-.345-.244-.68-.377-1.019a12.412,12.412,0,0,1-.669-1.949c-.324-1.508,0-3.25-.908-4.476-2.007-2.751-.589-6.977-1.428-10.328-.276-1.062-.68-2.124-.935-3.186-.159-.68-.26-1.375-.361-2.071a25.8,25.8,0,0,1-.393-4.556,19.491,19.491,0,0,1,.207-2.289l.637-5.267a15.716,15.716,0,0,1,1.508,4.333c.048.218.09.43.138.648a76.7,76.7,0,0,0,2.124,7.689c.483,1.524.961,3.043,1.482,4.55.154.43.3.866.441,1.306a10.506,10.506,0,0,1,.319,1.343c.058.361.085.733.112,1.1s.048.743.085,1.11a10.451,10.451,0,0,0,1.54,4.413c.026.034.051.07.074.106a1.253,1.253,0,0,0,.648.563h0a1.422,1.422,0,0,0,.579,0h.032c.281-.058.563-.122.839-.191a1.057,1.057,0,0,0,.122-.032c.127,1.646.616,3.287.658,4.949.053,2.416-.834,4.731-1.4,7.073a45.086,45.086,0,0,0-.951,6.489,2.875,2.875,0,0,0,.08,1.3.919.919,0,0,0,.966.653,1.169,1.169,0,0,0,.685-.611,4.848,4.848,0,0,0,.589-3.5c.5.106.765.685.887,1.211a7.275,7.275,0,0,1-.223,4.11c-.313.881-.8,1.694-1.062,2.6a1.358,1.358,0,0,0,0,.871c.266.611,1.1.568,1.71.345a8.6,8.6,0,0,0,4.508-4.248,13.021,13.021,0,0,0,1.322-6.17Z" transform="translate(-296.499 -220.424)"/><path class="k" d="M684.965,865.49a3.47,3.47,0,0,1-2.421.913,13.8,13.8,0,0,1-3.435.064,14.019,14.019,0,0,1-3.86-1.391L673,864.014a25.138,25.138,0,0,1-5.156-4.418,2.211,2.211,0,0,1,.425-3.042,6.913,6.913,0,0,1,.871-.34c1.657-.658,5.012-.324,6.775-.579a4.693,4.693,0,0,1,2.506.589c1.742.77,4.811,1.38,5.57,3.34C684.577,861.073,686.192,864,684.965,865.49Z" transform="translate(-331.619 -397.033)"/><path class="k" d="M723.594,862.745a3.47,3.47,0,0,0,2.421.913,10.364,10.364,0,0,0,7.29-1.333l2.251-1.062a25.029,25.029,0,0,0,5.161-4.418,2.205,2.205,0,0,0-.43-3.042,5.828,5.828,0,0,0-.866-.34c-1.657-.658-5.013-.324-6.775-.579a4.679,4.679,0,0,0-2.512.589c-1.736.77-4.779,1.38-5.565,3.34C723.965,858.328,722.346,861.253,723.594,862.745Z" transform="translate(-357.743 -395.742)"/><path class="k" d="M699.425,666.833a26.811,26.811,0,0,1,1.418,3.228c4.821,12.744,5.225,26.687,5.427,40.318a51.223,51.223,0,0,0,.377,6.632,14.215,14.215,0,0,1,.313,4.2c-.175,1.205-.743,2.395-.531,3.59.1.531.356,1.062.457,1.593a5.5,5.5,0,0,1-.048,1.768l-.643,4.811c-.372,2.74-1.221,5.374-1.174,8.14.032,1.885.064,3.77.271,5.644a55.863,55.863,0,0,1,.632,5.7c0,1.434-.181,2.862-.308,4.29a44.431,44.431,0,0,0-.122,6.064,9.4,9.4,0,0,0,1.062,4.5,8.4,8.4,0,0,1-3.324,3.186c-3.011,1.317-6.467.871-9.722.4a2.738,2.738,0,0,0,.2-1.853,3.491,3.491,0,0,0-.557-.759,9.026,9.026,0,0,1-1.45-3.367c-.393-1.439-.786-2.984,0-4.359a2.761,2.761,0,0,0,.356-1.593c-.674-9.027-2.687-18.393-.834-27.266a28.981,28.981,0,0,0,.531-2.851,34.921,34.921,0,0,0,.053-4.152l.021-1.981a39.047,39.047,0,0,0-.425-6.2c-.292-1.455-.844-2.92-.165-4.407a2.416,2.416,0,0,0-.1-2.124,39.284,39.284,0,0,1-3.43-7.917,13.732,13.732,0,0,0-.722-2.251,15.964,15.964,0,0,0-1.423-2.193,33.189,33.189,0,0,1-3.526-7.731c.1-.25,0-.589-.239-.531a1,1,0,0,0-.621.462c-1.3,1.742-1.407,4.067-1.466,6.244a46.07,46.07,0,0,0,.106,6.053c.106,1.062.292,2.124.388,3.186a37.313,37.313,0,0,1-.1,5.915l-.653,9.632a6.948,6.948,0,0,0,.138,2.395,13.4,13.4,0,0,1,.616,4.19,75.332,75.332,0,0,0,1.529,17.406c.319,1.593.7,3.154.972,4.742a77.568,77.568,0,0,1,.818,11.374c.058,2.342.1,4.779-.828,6.9a7.9,7.9,0,0,0-.786,2.124,4.392,4.392,0,0,1-.149,1.126,2.3,2.3,0,0,1-1.811,1.152,14.737,14.737,0,0,1-4.179.3,2.343,2.343,0,0,1-.95-.212c-.531-.271-.8-.844-1.195-1.274-.855-.935-2.278-1.221-3.058-2.22-.977-1.253-.568-3.064,0-4.54s1.3-3.074.8-4.582c-.589-1.768-2.655-2.724-3.239-4.508,1.593-7.19-2.326-14.623-1.991-21.978.08-1.715.377-3.414.382-5.129,0-4.418-1.9-8.719-1.593-13.126.8-11.2-3.016-22.381-4.63-33.495a21.631,21.631,0,0,1-.34-5.028,16.721,16.721,0,0,1,3.08-7.689,10.41,10.41,0,0,1,4.3-4.067,12.2,12.2,0,0,1,4.864-.627c4.11.032,8.22.064,12.33.138a40.556,40.556,0,0,1,8.336.744C695.087,665.474,697.168,666.509,699.425,666.833Z" transform="translate(-328.1 -307.196)"/><g class="l" transform="translate(354.052 382.133)"><path d="M702.1,712.089a1.014,1.014,0,0,1,.621-.462c.266-.037.345.3.244.531a32.912,32.912,0,0,0,3.52,7.731,15.533,15.533,0,0,1,1.428,2.193,14.264,14.264,0,0,1,.722,2.251,39.56,39.56,0,0,0,3.425,7.917,2.4,2.4,0,0,1,.1,2.124c-.68,1.487-.127,2.952.17,4.407a41.01,41.01,0,0,1,.425,6.2c0,.643,0,1.285.037,1.928a33.833,33.833,0,0,1-.048,4.152c-.112.961-.345,1.906-.531,2.851-1.848,8.873.159,18.224.834,27.266a2.755,2.755,0,0,1-.35,1.593c-.807,1.375-.414,2.92,0,4.359a8.877,8.877,0,0,0,1.45,3.367,3.882,3.882,0,0,1,.531.759,2.621,2.621,0,0,1-.2,1.853,40.951,40.951,0,0,0,4.343.462,31.423,31.423,0,0,1-5.634-.462,2.738,2.738,0,0,0,.2-1.853,3.5,3.5,0,0,0-.558-.759,9.027,9.027,0,0,1-1.45-3.366c-.393-1.439-.786-2.984,0-4.36a2.76,2.76,0,0,0,.356-1.593c-.674-9.027-2.687-18.393-.834-27.266a29,29,0,0,0,.531-2.851,34.934,34.934,0,0,0,.053-4.152c0-.643-.027-1.285-.043-1.928a39.04,39.04,0,0,0-.425-6.2c-.292-1.455-.844-2.92-.165-4.407a2.416,2.416,0,0,0-.1-2.124,39.3,39.3,0,0,1-3.43-7.917,14.254,14.254,0,0,0-.722-2.251,15.967,15.967,0,0,0-1.423-2.193,30.819,30.819,0,0,1-3.393-7.365C701.9,712.392,701.992,712.238,702.1,712.089Z" transform="translate(-701.78 -711.625)"/></g><path class="m" d="M600.55,566.354c-.4-1.949.356-4.035-.234-5.931-.212-.685-.733-1.4-1.45-1.381s-1.168.7-1.784,1.025c-.993.531-2.2.048-3.186-.473s-2.124-1.115-3.186-.8a2.108,2.108,0,0,0,.828,1.795,4.944,4.944,0,0,1,1.333,1.55,6.773,6.773,0,0,1,.186,2,7.5,7.5,0,0,0,2.066,4.073,72.88,72.88,0,0,0,5.007,5.549s2.655-3.313,2.618-3.892-.945-1.062-1.274-1.5A5.083,5.083,0,0,1,600.55,566.354Z" transform="translate(-295.625 -257.772)"/><path class="m" d="M752.7,647.1a10.316,10.316,0,0,1,.531,1.912c.69,3.345,1.126,6.738,1.556,10.126.112.9.228,1.811.26,2.719a12.411,12.411,0,0,1-1.29,6.26,8.756,8.756,0,0,1-4.689,4.248c-.627.223-1.5.266-1.779-.34a1.307,1.307,0,0,1,0-.866c.25-.9.754-1.715,1.062-2.591a6.983,6.983,0,0,0,.234-4.089c-.127-.531-.4-1.1-.924-1.205a4.646,4.646,0,0,1-.616,3.483,1.206,1.206,0,0,1-.711.605.961.961,0,0,1-1.009-.648,2.778,2.778,0,0,1-.08-1.29,43.411,43.411,0,0,1,.988-6.457c.584-2.331,1.513-4.63,1.45-7.035-.053-2.177-.919-4.317-.674-6.478a.531.531,0,0,1,.393-.531,14.331,14.331,0,0,1,1.874-.621c.377-.1,1.662-.531,2.023-.34s.382,1.131.531,1.46C752.109,645.965,752.454,646.506,752.7,647.1Z" transform="translate(-368.093 -297.733)"/><circle class="m" cx="8.894" cy="8.894" r="8.894" transform="translate(332.738 267.06)"/><path class="m" d="M680.08,519.883a10.018,10.018,0,0,0,.133,1.694,9.034,9.034,0,0,0,.531,1.651,9.634,9.634,0,0,0,1.242,2.443,3.637,3.637,0,0,0,2.251,1.466A63.966,63.966,0,0,1,665,532.7a8.115,8.115,0,0,0,2.549-2.724,7.7,7.7,0,0,0,.674-2.214,18.585,18.585,0,0,0-.834-9.595c-.112-.3-.218-.669,0-.919a.906.906,0,0,1,.319-.2,19.758,19.758,0,0,1,8.358-1.561c.733,0,1.466.037,2.2.09.393.032,1.258-.053,1.593.234s.186,1.412.2,1.874Z" transform="translate(-330.478 -237.493)"/><path class="n" d="M656.471,532.766a9.526,9.526,0,0,0-11.384-2.835c-4.248,2.023-6.319,6.9-10.041,9.728a17.51,17.51,0,0,1-2.7,1.662,7.53,7.53,0,0,1-1.773.7c-.7.154-1.418.133-2.124.3a5.453,5.453,0,0,0-3.149,2.443,16.532,16.532,0,0,1-1.158,1.784c-.388.462-.871.839-1.28,1.28-1.482,1.593-1.885,3.876-2.22,6.021a28.515,28.515,0,0,1-3.781,3.329,5.307,5.307,0,0,1-1.4.775,4.447,4.447,0,0,1-3.85-.913c-1.11-.8-2.012-1.858-3.106-2.655-1,1.434-2.055,2.878-3.128,4.248a1.343,1.343,0,0,1-.7.573c-.2.68.281,1.381.643,1.986l1.938,3.26a16.528,16.528,0,0,0,2.342,3.281,5.5,5.5,0,0,0,3.563,1.673,7.047,7.047,0,0,0,2.5-.483c3.717-1.243,7.089-3.223,10.62-4.912a4.721,4.721,0,0,1,2.081-.611,1.683,1.683,0,0,1,1.646,1.184c.4,2.039.8,4.067,1.354,6.064q.791,2.836,1.46,5.687a24.532,24.532,0,0,1,.637,3.552c.058.68.064,1.359.074,2.044l.074,8.241a4.915,4.915,0,0,1-.892,2.241,5.311,5.311,0,0,0-.249,3.961c.218.642.563,1.237.807,1.874a12.906,12.906,0,0,1,.531,4.864l-.069,3.759a.786.786,0,0,0,.08.457c.228.356.781.149,1.131-.1l1.736-1.189a40.152,40.152,0,0,0,7.1.345c6.749-.1,13.5.17,20.236.643a16.581,16.581,0,0,0,6.7-.419c1.062-.382,2.071-.993,3.186-1.3a2.911,2.911,0,0,0,1.259-.531c.616-.568.451-1.593.2-2.368-.223-.7-.473-1.4-.754-2.076a12.6,12.6,0,0,1-.7-1.938c-.335-1.5,0-3.234-.94-4.455-2.092-2.735-.611-6.945-1.492-10.275-.281-1.062-.7-2.124-.966-3.186a20.942,20.942,0,0,1-.377-2.06,24.136,24.136,0,0,1-.409-4.535,18.182,18.182,0,0,1,.218-2.273l.664-5.246a16.7,16.7,0,0,1,1.71,4.959,72.817,72.817,0,0,0,2.23,7.652c.5,1.513,1,3.021,1.54,4.524a14.736,14.736,0,0,1,.791,2.655c.117.728.122,1.471.207,2.2a10.03,10.03,0,0,0,1.593,4.391,1.444,1.444,0,0,0,.754.669,1.513,1.513,0,0,0,.653,0,25.986,25.986,0,0,0,6.754-2.336,2.756,2.756,0,0,0,1.142-.892c.573-.935-.069-2.1-.35-3.159s-.228-2.5-1.12-3.26c-3.117-2.655-1.593-8.034-3.128-11.814-.276-.664-.595-1.306-.828-1.986-.181-.531-.313-1.062-.446-1.593q-1.63-6.6-3.494-13.153c-1.285-4.524-1.147-9.234-2.766-13.652a14.39,14.39,0,0,0-1.184-2.655,7.248,7.248,0,0,0-2.124-2.214,21.251,21.251,0,0,0-7.487-3.441A41.447,41.447,0,0,0,656.471,532.766Z" transform="translate(-302.163 -243.888)"/><path class="n" d="M658.48,499.516c-1.195-.642-.881-2.395-1.062-3.717-.419-2.766-3.536-4.4-4.248-7.1a4.779,4.779,0,0,0,2.474-.35,3.792,3.792,0,0,0-.5-2.591c2.565-1.062,4.646-3.085,7.248-4.025,3.281-1.184,6.9-.457,10.237.642A8.143,8.143,0,0,1,677,485.057c1.094,1.566,1.062,3.621,1.02,5.533-.09,2.995-.212,6.1-1.545,8.777-1.694,3.414-6.5,6.574-10.471,5.65-1.646-.382-2.124-1.423-2.83-2.857-.435-.892-.595-1.927-1.593-2.395S659.452,500.037,658.48,499.516Z" transform="translate(-324.929 -221.385)"/><g class="l" transform="translate(302.462 314.318)"><path d="M659.464,667.56a.19.19,0,0,0,0,.048c.228.356.781.149,1.131-.1l1.763-1.216a40.157,40.157,0,0,0,7.1.34c6.749-.1,13.5.17,20.236.642a16.581,16.581,0,0,0,6.7-.419c1.062-.382,2.071-.988,3.186-1.3a3.664,3.664,0,0,0,1.1-.393c.127.35.249.7.361,1.062.25.8.414,1.8-.2,2.368a2.91,2.91,0,0,1-1.258.531c-1.1.3-2.124.913-3.186,1.3a16.581,16.581,0,0,1-6.7.419c-6.733-.473-13.487-.738-20.236-.643a40.155,40.155,0,0,1-7.094-.345l-1.763,1.221c-.35.244-.9.451-1.131.1a.787.787,0,0,1-.08-.457Q659.432,669.142,659.464,667.56Z" transform="translate(-630.307 -622.022)"/><path d="M729.816,601.087a16.7,16.7,0,0,0-1.71-4.959l-.664,5.246c-.043.329-.085.658-.122.988a16.272,16.272,0,0,1-.1-2.273,18.18,18.18,0,0,1,.218-2.273l.664-5.246a16.7,16.7,0,0,1,1.71,4.959,72.829,72.829,0,0,0,2.23,7.651c.5,1.513,1,3.027,1.54,4.524a14.877,14.877,0,0,1,.791,2.655c.117.727.122,1.471.207,2.2a9.951,9.951,0,0,0,1.593,4.391,1.413,1.413,0,0,0,.749.669,1.515,1.515,0,0,0,.653-.027,25.991,25.991,0,0,0,6.754-2.336,4.254,4.254,0,0,0,.791-.5h0c.281,1.062.924,2.225.35,3.159a2.755,2.755,0,0,1-1.142.892,25.99,25.99,0,0,1-6.754,2.336,1.513,1.513,0,0,1-.653,0,1.413,1.413,0,0,1-.749-.669,9.972,9.972,0,0,1-1.593-4.391c-.085-.727-.09-1.471-.207-2.2a14.742,14.742,0,0,0-.791-2.655c-.531-1.5-1.062-3.011-1.54-4.524A72.81,72.81,0,0,1,729.816,601.087Z" transform="translate(-662.12 -587.972)"/><path d="M731.08,635.84v.712C731.091,636.313,731.085,636.079,731.08,635.84Z" transform="translate(-663.932 -608.266)"/><path d="M657.6,651.093a12.907,12.907,0,0,1,.531,4.864v1.285a8.761,8.761,0,0,0-.531-2.591c-.244-.637-.589-1.232-.807-1.874a5.31,5.31,0,0,1,.042-3.457C657.053,649.925,657.366,650.493,657.6,651.093Z" transform="translate(-628.964 -614.588)"/><path d="M605.385,584.3l.3-.393,1.593,2.655a16.381,16.381,0,0,0,2.342,3.281,5.5,5.5,0,0,0,3.552,1.726,7.159,7.159,0,0,0,2.5-.478c3.717-1.248,7.089-3.228,10.62-4.917a4.721,4.721,0,0,1,2.05-.627,1.688,1.688,0,0,1,1.646,1.189c.4,2.034.8,4.062,1.354,6.059q.791,2.835,1.46,5.687a24.532,24.532,0,0,1,.637,3.552c.058.68.064,1.365.069,2.044l.08,8.246a2,2,0,0,1-.032.361l-.048-5.05a20.156,20.156,0,0,0-.069-2.044,24.529,24.529,0,0,0-.637-3.552q-.68-2.852-1.46-5.687c-.531-2-.95-4.025-1.354-6.064a1.683,1.683,0,0,0-1.646-1.184,4.72,4.72,0,0,0-2.081.611c-3.515,1.689-6.9,3.669-10.62,4.912a7.047,7.047,0,0,1-2.5.483,5.5,5.5,0,0,1-3.552-1.726,16.53,16.53,0,0,1-2.342-3.282c-.642-1.088-1.29-2.172-1.938-3.26-.361-.605-.844-1.306-.643-1.986A1.344,1.344,0,0,0,605.385,584.3Z" transform="translate(-604.62 -583.91)"/></g><g class="l" transform="translate(328.22 264.166)"><path d="M657.319,490.952h0a3.717,3.717,0,0,0-.489-1.3q.223-.09.446-.191A3.717,3.717,0,0,1,657.319,490.952Z" transform="translate(-654.865 -489.46)"/><path d="M657.378,501.164c.2,1.343-.112,3.09,1.062,3.717.966.531,2.124-.218,3.074.239s1.136,1.5,1.593,2.395c.7,1.434,1.184,2.469,2.83,2.857,3.972.924,8.777-2.241,10.471-5.655,1.333-2.682,1.455-5.783,1.545-8.777v1.3c-.09,2.995-.212,6.1-1.545,8.777-1.694,3.414-6.5,6.574-10.471,5.65-1.646-.382-2.124-1.423-2.83-2.857-.435-.892-.595-1.927-1.593-2.395s-2.124.287-3.074-.234c-1.195-.643-.881-2.395-1.062-3.717-.419-2.766-3.536-4.4-4.248-7.1a4.182,4.182,0,0,0,.579.037C654.85,497.367,657.033,498.886,657.378,501.164Z" transform="translate(-653.13 -492.227)"/></g><path class="f" d="M252.473,788.35a16.083,16.083,0,0,0-4.667-1.651,21.622,21.622,0,0,0,3.494-.786c3.032-.961,4.561-2.246,3.414-2.878s-4.54-.366-7.572.595a11.839,11.839,0,0,0-2.91,1.29,5.829,5.829,0,0,0-2.5-2.166c-2.692-1.481-6.313-2.225-8.087-1.667s-1.025,2.214,1.673,3.717a16.32,16.32,0,0,0,4.184,1.556,24.334,24.334,0,0,0-2.878.531c-3.3.791-5.209,1.991-4.248,2.655s4.391.6,7.694-.191a14.623,14.623,0,0,0,3.462-1.227,5.519,5.519,0,0,0,2.538,2.273c2.692,1.476,6.313,2.225,8.087,1.667S255.165,789.827,252.473,788.35Z" transform="translate(-127.457 -361.984)"/><path class="f" d="M184.7,694.686a10.009,10.009,0,0,0-2.931-1.03,13.148,13.148,0,0,0,2.2-.494c1.9-.6,2.857-1.407,2.124-1.8s-2.835-.228-4.736.372a7.336,7.336,0,0,0-1.816.807,3.664,3.664,0,0,0-1.593-1.354c-1.683-.929-3.951-1.4-5.06-1.062s-.637,1.386,1.062,2.315a10.317,10.317,0,0,0,2.655.972,16.463,16.463,0,0,0-1.811.319c-2.066.494-3.26,1.248-2.655,1.673s2.745.377,4.811-.117a9.139,9.139,0,0,0,2.166-.765,3.456,3.456,0,0,0,1.593,1.418c1.689.929,3.956,1.4,5.066,1.062S186.393,695.615,184.7,694.686Z" transform="translate(-99.247 -319.358)"/><ellipse class="f" cx="17.146" cy="3.297" rx="17.146" ry="3.297" transform="translate(392.496 446.942)"/><ellipse class="n" cx="1.997" cy="2.612" rx="1.997" ry="2.612" transform="translate(407.358 446.226)"/><ellipse class="n" cx="1.997" cy="2.612" rx="1.997" ry="2.612" transform="translate(407.358 443.034)"/><ellipse class="n" cx="1.997" cy="2.612" rx="1.997" ry="2.612" transform="translate(407.358 439.838)"/><ellipse class="n" cx="1.997" cy="2.612" rx="1.997" ry="2.612" transform="translate(407.358 436.646)"/><ellipse class="n" cx="1.997" cy="2.612" rx="1.997" ry="2.612" transform="translate(407.358 433.45)"/><ellipse class="n" cx="1.997" cy="2.612" rx="1.997" ry="2.612" transform="translate(407.358 430.259)"/><ellipse class="n" cx="1.997" cy="2.612" rx="1.997" ry="2.612" transform="translate(407.358 427.062)"/><path class="f" d="M804.917,746.353a9.669,9.669,0,0,0,.743-1.094l-5.246-.86,5.671.042a9.589,9.589,0,0,0,.186-7.577l-7.614,3.951,7.02-5.161a9.558,9.558,0,1,0-15.786,10.7A9.753,9.753,0,0,0,788.8,748.1l6.813,3.536-7.264-2.437a9.635,9.635,0,0,0-.5,3.069,9.494,9.494,0,0,0,2.05,5.91,9.558,9.558,0,1,0,15.032,0A9.558,9.558,0,0,0,804.917,746.353Z" transform="translate(-388.091 -338.533)"/><path class="c" d="M787.84,771.006a9.495,9.495,0,0,0,2.05,5.91,9.558,9.558,0,1,0,15.032,0C806.2,775.291,787.84,769.933,787.84,771.006Z" transform="translate(-388.091 -357.277)"/></g></svg>