<svg xmlns="http://www.w3.org/2000/svg" width="64.422" height="84.241" viewBox="0 0 64.422 84.241"><defs><style>.a{fill:rgba(255,133,53,0.3);}.b{fill:#333;stroke:#fff;}</style></defs><g transform="translate(0.5 0.5)"><path class="a" d="M187.892,211.964,181.946,208,176,211.964l3.964,5.946L176,233.765l5.946,5.946,5.946-5.946-3.964-15.855Zm0,0" transform="translate(-150.235 -160.434)"/><path class="b" d="M87.855,30.594c.261,1.136.363,12.362,1.044,13.731l2.92,5.834A9.915,9.915,0,0,0,93.8,52.836v3.13L80.136,58.449A9.909,9.909,0,0,0,72,68.2V99.241h63.422V68.2a9.9,9.9,0,0,0-8.136-9.749L113.62,55.968v-3.13a9.915,9.915,0,0,0,1.982-2.676l2.92-5.836a10.008,10.008,0,0,0,1.044-4.431V30.341a9.1,9.1,0,0,0-4.756-8.028l-2.038-2.037A14.6,14.6,0,0,0,87.855,30.594h3.964a10.632,10.632,0,0,1,18.149-7.517l2.477,2.479.289.145a5.16,5.16,0,0,1,2.867,4.639v9.553a5.987,5.987,0,0,1-.626,2.659l-2.92,5.834a5.91,5.91,0,0,1-5.318,3.286h-6.058a5.91,5.91,0,0,1-5.318-3.286l-2.92-5.834c-.408-.823-.624-11.042-.624-11.959C91.819,30.594,87.594,29.459,87.855,30.594Zm7.432,29.131,5.189,3.892L95.2,67.837l-1.31-7.856Zm36.17,8.474V95.277H123.53V69.512h-3.964V95.277H87.855V69.512H83.892V95.277H75.964V68.2a5.944,5.944,0,0,1,4.881-5.85l9.147-1.664L92.4,75.151,103.711,66.1l11.309,9.048,2.41-14.465,9.147,1.664A5.942,5.942,0,0,1,131.458,68.2Zm-19.324-8.474,1.4.254-1.31,7.856-5.274-4.219Zm-5.4-4.087a9.989,9.989,0,0,0,2.918-.444v1.435l-5.946,4.459-5.946-4.459V55.192a9.916,9.916,0,0,0,2.918.446Z" transform="translate(-72 -16)"/></g></svg>