<svg xmlns="http://www.w3.org/2000/svg" xmlns:xlink="http://www.w3.org/1999/xlink" width="264.97" height="250" viewBox="0 0 264.97 250"><defs><style>.a,.b{fill:none;stroke:#0957d1;stroke-miterlimit:10;}.a{stroke-width:9px;}.b{stroke-width:4px;stroke-dasharray:4 4;}.c{fill:url(#a);}.d{fill:#f6b9ad;}.e{fill:url(#b);}.f{fill:url(#c);}.g,.p{fill:#fff;}.h{fill:rgba(239,109,24,0.3);}.i{fill:#dbdbdb;}.j{fill:url(#d);}.k{fill:url(#e);}.l{fill:#ff8976;}.m{fill:url(#f);}.n{fill:url(#g);}.o{fill:#ef6d18;}.p,.r{opacity:0.2;}.q{fill:#f5f5f5;}.s{fill:url(#h);}.t{fill:url(#i);}.u{fill:url(#j);}.v{fill:url(#k);}.w{fill:url(#l);}.x{fill:url(#m);}</style><linearGradient id="a" x1="0.5" y1="1" x2="0.5" gradientUnits="objectBoundingBox"><stop offset="0" stop-color="gray" stop-opacity="0.251"/><stop offset="0.54" stop-color="gray" stop-opacity="0.122"/><stop offset="1" stop-color="gray" stop-opacity="0.102"/></linearGradient><linearGradient id="b" x1="0.5" y1="1" x2="0.5" y2="0" xlink:href="#a"/><linearGradient id="c" x1="1.115" y1="1.124" x2="1.115" y2="0.124" xlink:href="#a"/><linearGradient id="d" x1="0.5" y1="1" x2="0.5" y2="0" xlink:href="#a"/><linearGradient id="e" x1="1.17" y1="2.05" x2="1.17" y2="1.05" xlink:href="#a"/><linearGradient id="f" x1="0.5" y1="1" x2="0.5" gradientUnits="objectBoundingBox"><stop offset="0" stop-opacity="0.122"/><stop offset="0.55" stop-opacity="0.09"/><stop offset="1" stop-opacity="0.02"/></linearGradient><linearGradient id="g" x1="0.5" y1="1" x2="0.5" y2="0" xlink:href="#a"/><linearGradient id="h" x1="2.85" y1="1.97" x2="2.85" y2="0.969" xlink:href="#f"/><linearGradient id="i" x1="0.5" y1="1" x2="0.5" y2="0" xlink:href="#a"/><linearGradient id="j" x1="0.5" y1="1" x2="0.5" y2="0" xlink:href="#a"/><linearGradient id="k" x1="0.5" y1="1" x2="0.5" y2="0" xlink:href="#a"/><linearGradient id="l" x1="0.5" y1="1" x2="0.5" y2="0" xlink:href="#f"/><linearGradient id="m" x1="2.688" y1="2.908" x2="2.688" y2="1.864" xlink:href="#a"/></defs><g transform="translate(-2.5)"><path class="a" d="M220.809,517.174s-.225-.662-.589-1.894" transform="translate(-209.964 -368.67)"/><path class="b" d="M207.53,274.274c-8.048-30.987-33.139-173.8,218.387-84.645" transform="translate(-198.34 -131.504)"/><path class="a" d="M882.35,250l1.871.662" transform="translate(-652.889 -191.214)"/><path class="c" d="M520.28,528.349a26.885,26.885,0,0,0-53.3-5.012L384.35,521.1l.907,14.2s-11.782,27.187,50.142,34.43V597.2h71.588V551.513A26.869,26.869,0,0,0,520.28,528.349Z" transform="translate(-319.757 -359.422)"/><path class="d" d="M393.881,577.987s-11.283,26.035,48.02,32.98v26.326H510.46V567.571L393,564.39Z" transform="translate(-325.544 -401.522)"/><path class="e" d="M377.789,189.278h0a12.64,12.64,0,0,1-17.381,3.95L323.6,168.97a12.64,12.64,0,0,1-3.95-17.381h0a12.64,12.64,0,0,1,17.367-3.95L373.826,171.9A12.64,12.64,0,0,1,377.789,189.278Z" transform="translate(-275.187 -121.457)"/><path class="d" d="M380.158,191.457h0A11.749,11.749,0,0,1,364,195.129L329.774,172.58a11.749,11.749,0,0,1-3.671-16.156h0a11.749,11.749,0,0,1,16.156-3.671L376.48,175.3A11.749,11.749,0,0,1,380.158,191.457Z" transform="translate(-279.596 -124.964)"/><circle class="d" cx="25.747" cy="25.747" r="25.747" transform="translate(146.153 144.067)"/><rect class="f" width="106.74" height="192.664" rx="12.25" transform="translate(64.58)"/><rect class="g" width="103.854" height="187.459" rx="13.64" transform="translate(66.023 2.605)"/><path class="h" d="M471.952,94.49a8.419,8.419,0,0,1-8.3,7.161H427.785a8.419,8.419,0,0,1-8.3-7.161h-19a3.943,3.943,0,0,0-3.946,3.943V268.6a3.943,3.943,0,0,0,3.943,3.946H491.24a3.943,3.943,0,0,0,3.946-3.943V98.436a3.943,3.943,0,0,0-3.943-3.946Z" transform="translate(-327.911 -87.187)"/><rect class="i" width="23.144" height="1.447" rx="0.723" transform="translate(106.525 9.548)"/><circle class="i" cx="0.867" cy="0.867" r="0.867" transform="translate(133.718 9.26)"/><path class="j" d="M694.4,414.322h0c-7.472,1.728-12.6-3.145-14.328-10.614L662.908,339.96a13.984,13.984,0,0,1,10.445-16.722h0a13.984,13.984,0,0,1,16.722,10.445l14.01,65.384C705.813,406.549,701.874,412.594,694.4,414.322Z" transform="translate(-505.86 -239.97)"/><rect class="d" width="23.432" height="93.561" rx="11.716" transform="translate(156.82 89.137) rotate(-13.01)"/><rect class="k" width="97.994" height="22.843" transform="translate(99.546 227.157)"/><rect class="l" width="92.697" height="17.877" transform="translate(102.195 229.805)"/><path class="m" d="M519.748,222.073l-7.595-5.717,3.311-4.3-5.525-4.337-3.453,4.377-7.81-5.876a1.718,1.718,0,0,0-2.062,0l-20.7,15.411a3.671,3.671,0,0,0-1.526,3.155h-.023l-.053,23.744h0v1.056a2.589,2.589,0,0,0,2.582,2.6h1.02l19.629.043,20.651.046a2.589,2.589,0,0,0,2.6-2.582l.056-24.757h.043C520.887,223.189,520.533,222.735,519.748,222.073Z" transform="translate(-379.935 -161.694)"/><path class="n" d="M522.975,229.422c0-1.582-.331-1.986-1.039-2.6l-19.225-14.457a1.569,1.569,0,0,0-1.884,0L481.94,226.429a3.331,3.331,0,0,0-1.39,2.877h-.02l-.05,21.665h0v.963a2.364,2.364,0,0,0,2.357,2.367h.93l17.91.04,18.841.043a2.364,2.364,0,0,0,2.367-2.357l.05-22.588Z" transform="translate(-384.062 -165.828)"/><path class="o" d="M0,0H41.657V22.919A1.384,1.384,0,0,1,40.273,24.3H1.539A1.526,1.526,0,0,1,.013,22.777V0Z" transform="translate(96.815 63.565) rotate(0.13)"/><path class="p" d="M0,0H41.657V22.919A1.384,1.384,0,0,1,40.273,24.3H1.539A1.526,1.526,0,0,1,.013,22.777V0Z" transform="translate(96.815 63.565) rotate(0.13)"/><path class="q" d="M481.6,264.41l-.046,21.052a3.234,3.234,0,0,0,3.228,3.241l35.188.079" transform="translate(-384.778 -200.853)"/><path class="g" d="M529.786,264.69l-.046,21.065a3.234,3.234,0,0,1-3.241,3.228L491.31,288.9" transform="translate(-391.307 -201.04)"/><path class="o" d="M501.7,214.039l-18.539,13.673a3.228,3.228,0,0,0-1.367,2.8l41.677.132a2.6,2.6,0,0,0-1.02-2.526l-18.887-14.07A1.553,1.553,0,0,0,501.7,214.039Z" transform="translate(-384.938 -166.952)"/><path class="r" d="M501.7,214.039l-18.539,13.673a3.228,3.228,0,0,0-1.367,2.8l41.677.132a2.6,2.6,0,0,0-1.02-2.526l-18.887-14.07A1.553,1.553,0,0,0,501.7,214.039Z" transform="translate(-384.938 -166.952)"/><path class="s" d="M339.229,148.613l-5.042-3.953L322,160.094l-6.548-5.078-4.1,5.214,9.531,7.28h0l2.364,1.9Z" transform="translate(-205.262 -96.769)"/><path class="g" d="M340.075,149.233l-4.569-3.5L323.4,161.518l-6.724-5.155-3.506,4.569,9.008,6.9h0l2.311,1.731Z" transform="translate(-206.48 -97.485)"/><path class="t" d="M365.424,302.359h0a12.547,12.547,0,0,1-17.251,3.92l-31.285-20.37a12.547,12.547,0,0,1-3.92-17.252h0a12.547,12.547,0,0,1,17.252-3.92l31.285,20.37A12.547,12.547,0,0,1,365.424,302.359Z" transform="translate(-270.728 -199.794)"/><path class="d" d="M367.372,304.188h0a11.749,11.749,0,0,1-16.156,3.671l-29.3-19.079a11.749,11.749,0,0,1-3.671-16.156h0a11.749,11.749,0,0,1,16.156-3.672l29.3,19.079A11.749,11.749,0,0,1,367.372,304.188Z" transform="translate(-274.338 -202.695)"/><path class="u" d="M359.681,413.041h0a12.488,12.488,0,0,1-17.172,3.9l-24.69-15.974a12.488,12.488,0,0,1-3.9-17.172h0a12.488,12.488,0,0,1,17.172-3.9l24.687,15.977A12.488,12.488,0,0,1,359.681,413.041Z" transform="translate(-271.368 -276.833)"/><path class="v" d="M359.529,524.584h0a12.6,12.6,0,0,1-17.328,3.94L326.91,517.367a12.6,12.6,0,0,1-3.94-17.328h0a12.6,12.6,0,0,1,17.328-3.926l15.292,11.153A12.6,12.6,0,0,1,359.529,524.584Z" transform="translate(-277.414 -354.561)"/><path class="d" d="M361.059,526.211h0a11.749,11.749,0,0,1-16.156,3.671l-14.259-10.4a11.749,11.749,0,0,1-3.671-16.156h0a11.749,11.749,0,0,1,16.156-3.671l14.259,10.4a11.749,11.749,0,0,1,3.671,16.156Z" transform="translate(-280.178 -357.019)"/><rect class="w" width="67.536" height="20.195" transform="translate(84.182 107.121)"/><rect class="g" width="62.901" height="14.567" transform="translate(86.499 109.107)"/><path class="x" d="M734.243,173.139l1.189.185-.185-.175h.1l-.156-.053L713.641,152.66l-5.231,8.253-4.35,7.528,2.016.314-.894,4.079Z" transform="translate(-467.962 -102.12)"/><path class="o" d="M711.9,175.993l-3.973,6.889,29.133,4.744L718.3,174.56Z" transform="translate(-470.55 -116.77)"/><path class="r" d="M711.9,175.993l-3.973,6.889,29.133,4.744L718.3,174.56Z" transform="translate(-470.55 -116.77)"/><path class="o" d="M724.714,156.09l20.377,19.182L719.93,163.638Z" transform="translate(-478.578 -104.415)"/><path class="o" d="M711.17,194.263l27.981.533-26.121-9.276Z" transform="translate(-472.718 -124.102)"/><path class="d" d="M361.287,414.595h0a11.749,11.749,0,0,1-16.156,3.671L321.9,403.236a11.749,11.749,0,0,1-3.671-16.156h0a11.749,11.749,0,0,1,16.156-3.688l23.227,15.03A11.749,11.749,0,0,1,361.287,414.595Z" transform="translate(-274.331 -279.251)"/></g></svg>