<svg xmlns="http://www.w3.org/2000/svg" width="74" height="62.58" viewBox="0 0 74 62.58"><defs><style>.a{fill:none;}.b{fill:#506270;}</style></defs><g transform="translate(-498 -291)"><g transform="translate(-382 -92)"><path class="a" d="M0,0H22V22H0Z" transform="translate(932 423)"/><path class="b" d="M8.765,15.235h5.647V9.588h3.765L11.588,3,5,9.588H8.765ZM5,17.118H18.176V19H5Z" transform="translate(931 423)"/></g><g transform="translate(74.004 16.827)"><path class="b" d="M51.9,62.58H8.689A8.708,8.708,0,0,1,0,53.892V8.591A8.352,8.352,0,0,1,.685,5.272,8.748,8.748,0,0,1,8.689,0H52.623a8.709,8.709,0,0,1,8.688,8.689V38.075H61.3a14.055,14.055,0,0,0-9.4,24.5Z" transform="translate(423.996 274.173)"/></g></g></svg>